<svg xmlns="http://www.w3.org/2000/svg" viewBox="0 0 512 512">
  <path fill="#0D0D0E" d="m71.438 181.563 2.525-.061c5.507.004 8.675.84 13.037 4.498 1.875 2.25 1.875 2.25 3 4l2.25-2.875c2.446-3.125 4.849-4.862 8.853-5.416 2.425-.049 4.847-.08 7.272-.084l2.54-.074c5.53-.026 8.743.71 13.085 4.449 11.416 15.221 3 37.974 3 57h258v-49c2.775-6.475 3.986-8.993 10-12 3.076-.29 6.162-.278 9.25-.313l2.566-.087c5.587-.057 8.761.66 13.184 4.4 1.875 2.25 1.875 2.25 3 4l1.207-1.496 1.606-1.941 1.582-1.934c3.124-3.17 6.815-2.808 10.974-2.863l2.443-.016 2.409-.063c5.02-.033 8.434.526 12.779 3.313 4.134 4.693 4.732 8.98 5 15l1.875-1.938c3.9-3.784 7.698-3.313 12.875-3.375l2.422-.087c5.421-.058 8.594.692 12.828 4.4 1.705 2.801 2.248 4.865 2.227 8.126v2.426l-.032 2.589-.008 2.673c-.011 2.812-.037 5.624-.062 8.436-.01 1.909-.02 3.818-.027 5.727-.022 4.674-.057 9.349-.098 14.023l3.766-.074c5.49-.108 9.471 1.582 13.671 5.137 2.299 4.32 2.444 8.149 1.563 12.937-1.748 3.637-4.18 5.599-7.813 7.375-3.83.75-7.285.665-11.187.625l.063 3.577c.073 4.394.119 8.788.157 13.183.02 1.9.047 3.799.082 5.698.048 2.735.071 5.47.089 8.206l.062 2.558c.002 5.424-.86 8.46-4.453 12.778-3.651 2.926-8.47 2.33-12.938 2.313l-2.42.048c-4.697.004-7.837-.3-11.642-3.361l-1-2-.078 1.758c-.395 5.443-1.195 9.011-4.922 13.242-5.063 3.222-9.255 3.46-15.063 3.375l-2.392.035c-4.676-.023-7.744-.413-11.545-3.41-2.313-2.688-2.313-2.688-4-5l-2.25 2.875c-2.446 3.125-4.849 4.862-8.853 5.416-2.425.049-4.847.08-7.272.084l-2.54.074c-5.541.026-8.686-.769-13.085-4.449-12.03-13.275-4-53.192-4-57H127v53c-6.363 7.636-6.363 7.636-11.103 8.29-2.425.05-4.847.081-7.272.085l-2.54.074c-5.537.026-8.699-.757-13.085-4.449-1.875-2.25-1.875-2.25-3-4l-2.25 2.875c-2.446 3.125-4.849 4.862-8.853 5.416-2.425.049-4.847.08-7.272.084l-2.54.074c-5.537.026-8.698-.758-13.085-4.449-3.493-4.215-3.667-8.725-4-14l-2.406 2.46c-4.096 3.402-7.95 3.285-13.094 3.165l-2.512.059c-4.24-.034-7.138-.35-10.52-3.036-3.017-3.237-3.595-5.394-3.582-9.66v-2.427l.016-2.604.005-2.678c.005-2.822.018-5.644.03-8.466A6939.157 6939.157 0 0 1 20 269l-1.835.042-2.427.032-2.397.042c-4.785-.237-8.19-2.142-11.778-5.178C-.736 259.615-.881 255.787 0 251c1.735-3.61 4.16-5.58 7.75-7.375 2.807-.54 5.12-.69 7.953-.664l2.443.017L20 243l-.048-3.593a2243.7 2243.7 0 0 1-.117-13.222 996.756 996.756 0 0 0-.061-5.718 970.52 970.52 0 0 1-.067-8.229c-.015-.849-.03-1.698-.047-2.573-.002-5.774 1.001-9.064 4.942-13.446 3.812-1.937 7.558-1.732 11.773-1.719l2.54-.086c4.412-.014 7.224.238 10.687 3.117L52 200l.078-1.758c.396-5.458 1.249-8.956 4.922-13.242 4.56-3.64 8.856-3.485 14.438-3.438Z"/>
  <path fill="#282730" d="m71.438 181.563 2.525-.061c5.507.004 8.675.84 13.037 4.498 1.875 2.25 1.875 2.25 3 4l2.25-2.875c2.446-3.125 4.849-4.862 8.853-5.416 2.425-.049 4.847-.08 7.272-.084l2.54-.074c5.53-.026 8.743.71 13.085 4.449 2.877 3.16 3.378 5.21 3.394 9.452l.035 3.356-.01 3.668c.01 1.278.018 2.557.027 3.874.022 3.504.025 7.008.023 10.513 0 2.927.008 5.854.017 8.782.019 6.908.022 13.816.015 20.724-.007 7.12.016 14.241.053 21.362.031 6.118.042 12.237.038 18.355-.002 3.652.004 7.304.028 10.956.027 4.075.013 8.148-.005 12.223l.04 3.656c-.091 9.113-.091 9.113-3.066 12.79-5.242 4.634-9.201 4.654-15.964 4.664l-2.54.074c-5.537.026-8.699-.757-13.085-4.449-1.875-2.25-1.875-2.25-3-4l-2.25 2.875c-2.446 3.125-4.849 4.862-8.853 5.416-2.425.049-4.847.08-7.272.084l-2.54.074c-5.537.026-8.698-.758-13.085-4.449-3.493-4.215-3.667-8.725-4-14l-2.406 2.46c-4.096 3.402-7.95 3.285-13.094 3.165l-2.512.059c-4.24-.034-7.138-.35-10.52-3.036-3.017-3.237-3.595-5.394-3.582-9.66v-2.427l.016-2.604.005-2.678c.005-2.822.018-5.644.03-8.466A6939.157 6939.157 0 0 1 20 269l-1.835.042-2.427.032-2.397.042c-4.785-.237-8.19-2.142-11.778-5.178C-.736 259.615-.881 255.787 0 251c1.735-3.61 4.16-5.58 7.75-7.375 2.807-.54 5.12-.69 7.953-.664l2.443.017L20 243l-.048-3.593a2243.7 2243.7 0 0 1-.117-13.222 996.756 996.756 0 0 0-.061-5.718 970.52 970.52 0 0 1-.067-8.229c-.015-.849-.03-1.698-.047-2.573-.002-5.774 1.001-9.064 4.942-13.446 3.812-1.937 7.558-1.732 11.773-1.719l2.54-.086c4.412-.014 7.224.238 10.687 3.117L52 200l.078-1.758c.396-5.458 1.249-8.956 4.922-13.242 4.56-3.64 8.856-3.485 14.438-3.438Z"/>
  <path fill="#282730" d="M71 182v148c-10.46 0-10.46 0-15-4-3.493-4.215-3.667-8.725-4-14l-2.406 2.46c-4.096 3.402-7.95 3.285-13.094 3.165l-2.512.059c-4.24-.034-7.138-.35-10.52-3.036-3.017-3.237-3.595-5.394-3.582-9.66v-2.427l.016-2.604.005-2.678c.005-2.822.018-5.644.03-8.466A6939.157 6939.157 0 0 1 20 269l-1.835.042-2.427.032-2.397.042c-4.785-.237-8.19-2.142-11.778-5.178C-.736 259.615-.881 255.787 0 251c1.735-3.61 4.16-5.58 7.75-7.375 2.807-.54 5.12-.69 7.953-.664l2.443.017L20 243l-.048-3.593a2243.7 2243.7 0 0 1-.117-13.222 996.756 996.756 0 0 0-.061-5.718 970.52 970.52 0 0 1-.067-8.229c-.015-.849-.03-1.698-.047-2.573-.002-5.774 1.001-9.064 4.942-13.446 3.812-1.937 7.558-1.732 11.773-1.719l2.54-.086c4.412-.014 7.224.238 10.687 3.117L52 200l.078-1.758c.396-5.458 1.249-8.956 4.922-13.242 4.779-4.096 6.856-3 14-3Z"/>
  <path fill="#D7D0D2" d="M127 243a269409.96 269409.96 0 0 1 112.512-.056c12.505-.004 25.011-.012 37.517-.021 12.822-.01 25.644-.015 38.466-.017 7.919-.001 15.837-.006 23.756-.014 6.061-.006 12.123-.006 18.184-.005 2.495 0 4.989-.002 7.483-.006 3.389-.005 6.778-.004 10.167-.001l3.033-.01 2.73.007 2.373-.001C385 243 385 243 386 244c.1 1.769.13 3.541.133 5.313l.004 3.257-.012 3.43.012 3.43-.004 3.257-.004 3.012C386 268 386 268 385 269a59.203 59.203 0 0 1-4.152.123l-2.73.006-3.033-.009-3.195.003c-3.562.002-7.125-.004-10.687-.01l-7.626.001c-5.488 0-10.976-.003-16.463-.008-7.935-.008-15.87-.011-23.804-.012-12.871-.002-25.743-.01-38.615-.019-12.507-.009-25.014-.016-37.52-.02h-2.335l-11.594-.005c-32.082-.01-64.164-.028-96.246-.05v-26Z"/>
  <path fill="#1B1A1F" d="m475.75 194.688 2.422-.088c5.421-.058 8.594.692 12.828 4.4 1.705 2.801 2.248 4.865 2.227 8.126v2.426l-.032 2.589-.008 2.673c-.011 2.812-.037 5.624-.062 8.436-.01 1.909-.02 3.818-.027 5.727-.022 4.674-.057 9.349-.098 14.023l3.766-.074c5.49-.108 9.471 1.582 13.671 5.137 2.299 4.32 2.444 8.149 1.563 12.937-1.748 3.637-4.18 5.599-7.813 7.375-3.83.75-7.285.665-11.187.625l.063 3.577c.073 4.394.119 8.788.157 13.183.02 1.9.047 3.799.082 5.698.048 2.735.071 5.47.089 8.206l.062 2.558c.002 5.424-.86 8.46-4.453 12.778-3.651 2.926-8.47 2.33-12.938 2.313l-2.42.048c-4.699.004-7.849-.288-11.642-3.361-2.102-3.152-2.253-3.904-2.274-7.503l-.03-2.795-.002-3.06-.026-3.23c-.024-3.53-.032-7.06-.04-10.592l-.026-7.35c-.017-5.14-.025-10.279-.028-15.419-.005-6.59-.043-13.18-.088-19.77-.03-5.06-.037-10.122-.038-15.183-.004-2.43-.017-4.86-.038-7.29a879.786 879.786 0 0 1-.01-10.19l-.044-3.048c.05-4.718.083-6.85 3.056-10.671 4.417-3.242 8.002-3.148 13.338-3.212Z"/>
  <path fill="#0E0E0E" d="M71 182c11.294 0 11.294 0 16 4 3.326 3.326 3.126 6.762 3.134 11.307l.013 3.258-.002 3.56.01 3.76c.008 3.401.012 6.802.012 10.203l.006 6.376c.009 7.417.013 14.834.012 22.25 0 6.911.01 13.822.026 20.733.013 5.936.018 11.873.018 17.809 0 3.544.002 7.088.013 10.633.012 3.952.007 7.904 0 11.857.007 1.172.012 2.345.018 3.553l-.013 3.267.002 2.83c-.418 4.369-1.482 6.914-4.749 9.854-5.64 3.948-5.427 2.75-14.5 2.75V182Z"/>
  <path fill="#0D0D0E" d="M441 182c10.7 0 10.7 0 15 3 5.097 5.572 4.567 11.246 4.518 18.52l.02 3.815c.019 3.443.012 6.884 0 10.327-.01 3.608-.001 7.217.005 10.826.007 6.059-.002 12.118-.022 18.177-.021 6.997-.014 13.994.008 20.991.018 6.017.02 12.033.01 18.05-.006 3.589-.007 7.178.006 10.768.014 4.002-.005 8.004-.027 12.006l.024 3.59c-.064 6.256-.24 10.226-4.542 14.93-5.39 3.76-7.723 3-15 3V182Z"/>
  <path fill="#282831" d="M404 182v148c-10.333 0-10.333 0-15-4-3.689-4.07-4.123-7.777-4.14-13.141l-.018-3.148-.003-3.437-.015-3.633c-.012-3.285-.02-6.57-.024-9.855-.003-2.055-.007-4.11-.012-6.164-.013-6.433-.023-12.866-.027-19.3-.004-7.416-.022-14.832-.05-22.248-.023-5.74-.033-11.479-.034-17.218-.001-3.425-.007-6.85-.025-10.274-.017-3.823-.015-7.645-.008-11.468l-.028-3.418c.032-6.009.399-10.427 3.384-15.696 5.814-5.389 7.235-5 16-5Z"/>
  <path fill="#282730" d="M441 182v148c-10.646 0-10.646 0-16.605-5.33-3.844-4.73-3.053-10.461-2.966-16.265l-.002-3.84c0-3.466.031-6.93.07-10.396.03-2.897.044-5.795.058-8.692.032-6.839.09-13.676.165-20.514.077-7.044.114-14.087.131-21.131.016-6.058.054-12.116.112-18.174.034-3.614.06-7.227.065-10.84.006-4.032.06-8.062.12-12.093l-.014-3.607c.139-6.389.727-10.294 5.29-14.936C431.762 180.929 435.243 182 441 182Z"/>
  <path fill="#0D0D0D" d="M109 183c11 0 11 0 14.625 2.375 3.235 3.576 3.502 5.129 3.529 9.836l.026 3.348.013 3.69.025 3.873c.026 4.246.041 8.492.055 12.737l.017 4.385c.021 6.08.04 12.16.051 18.241.016 8.714.05 17.426.107 26.14.038 6.126.058 12.253.063 18.38.004 3.658.016 7.317.048 10.976.036 4.084.032 8.168.024 12.252l.05 3.666c-.068 9.138-.068 9.138-3.044 12.836-5.66 4.951-5.725 3.265-15.589 3.265V183Z"/>
  <path fill="#282730" d="M37 195v122c-10 0-10 0-13.563-2.313-2.964-3.269-3.564-5.44-3.55-9.7v-2.426l.015-2.604.005-2.678c.005-2.822.018-5.644.03-8.466A6939.157 6939.157 0 0 1 20 269l-1.835.042-2.427.032-2.397.042c-4.785-.237-8.19-2.142-11.778-5.178C-.736 259.615-.881 255.787 0 251c1.735-3.61 4.16-5.58 7.75-7.375 2.807-.54 5.12-.69 7.953-.664l2.443.017L20 243l-.048-3.593a2243.7 2243.7 0 0 1-.117-13.222 996.756 996.756 0 0 0-.061-5.718 970.52 970.52 0 0 1-.067-8.229c-.015-.849-.03-1.698-.047-2.573-.001-4.719.226-7.87 3.34-11.665 4-3 4-3 14-3Z"/>
  <path fill="#68D1E7" d="M127 243a264889.184 264889.184 0 0 1 112.512-.056c12.505-.004 25.011-.012 37.517-.021 12.822-.01 25.644-.015 38.466-.017 7.919-.001 15.837-.006 23.756-.014 6.061-.006 12.123-.006 18.184-.005 2.495 0 4.989-.002 7.483-.006 3.389-.005 6.778-.004 10.167-.001l3.033-.01 2.73.007 2.373-.001C385 243 385 243 386 244v8H127v-9Z"/>
  <path fill="#0D0D0D" d="M37 195c9 0 9 0 12.5 2.375 3.104 3.259 3.623 4.584 3.654 8.925l.026 2.736.013 3.01.025 3.164c.025 3.466.041 6.933.055 10.4l.017 3.582c.026 6.257.046 12.514.06 18.772.017 6.468.062 12.935.112 19.402.034 4.97.046 9.938.051 14.907.007 2.384.022 4.768.046 7.153.032 3.337.032 6.673.024 10.01l.05 2.986c-.04 4.489-.16 7.6-3.044 11.176C45.549 318.275 45.498 317 37 317V195Z"/>
  <path fill="#D5CFD2" d="M20 243v26c-12.455 0-12.455 0-18.438-5.063C-.736 259.618-.88 255.788 0 251c1.735-3.61 4.16-5.58 7.75-7.375C11 243 11 243 20 243ZM493 243c7.68 0 11.651.166 17.438 5.063 2.298 4.32 2.443 8.149 1.562 12.937-1.748 3.637-4.18 5.599-7.813 7.375C501 269 501 269 493 269v-26Z"/>
  <path fill="#68D1E7" d="M20 243v9l-2.012.078c-4.239.272-7.334.569-11.113 2.61C4.753 256.9 4.753 256.9 4.562 260c.409 2.8.967 4.61 2.438 7-3.397-1.406-5.05-2.887-7-6-.798-4.029-.88-8.156.914-11.914C5.968 242.467 12.416 242.77 20 243ZM493 243c6.95-.366 11.91.386 17.438 5.063 2.287 4.3 2.482 8.17 1.562 12.937-1.428 2.505-2.88 3.986-5 6l-2-1 2-3c.583-2.957.583-2.957 0-6-2.898-3.46-5.482-4.251-9.813-4.75L493 252v-9Z"/>
</svg>
