<svg xmlns="http://www.w3.org/2000/svg" viewBox="0 0 1024 1024" width="2000" height="2000">
    <g transform="translate(0, 0) rotate(90, 256, 256)">
    <path fill="#7E7D82" d="m48.841 140.05 2.348-.086c2.558-.083 5.115-.119 7.674-.148l5.38-.096c3.763-.059 7.526-.09 11.29-.106 3.836-.022 7.666-.098 11.5-.226 33.467-1.095 33.467-1.095 41.945 5.303 3.536 3.393 6.25 7.083 8.744 11.288 1.9 3.005 4.237 5.172 6.84 7.583 4.025 3.985 7.823 8.079 11.438 12.438l1.656 1.922c8.165 10.005 7.853 21.403 8.032 33.703.033 1.592.067 3.185.103 4.777.084 3.866.151 7.732.209 11.598l3.284-.411c19.399-2.419 38.798-4.749 58.279-6.402l2.163-.19c19.425-1.694 38.135-.616 57.524 1.253l3.607.34c47.316 4.468 47.316 4.468 56.143 7.41-.01-1.145-.02-2.29-.032-3.469-.036-4.27-.059-8.54-.078-12.81-.01-1.843-.024-3.687-.04-5.53-.025-2.659-.037-5.317-.045-7.976l-.032-2.476c-.001-7.545 1.016-13.09 6.415-18.739l2.44-2.586a600.345 600.345 0 0 1 7.712-7.723c1.7-1.732 3.273-3.531 4.848-5.379 3.606-4.195 7.504-8.063 11.461-11.924l1.484-1.458 1.309-1.274c1.765-1.794 1.765-1.794 3.663-4.702 2.262-2.702 2.832-2.94 6.515-3.776 1.417-.063 2.835-.093 4.253-.097l2.357-.076c2.569-.072 5.135-.098 7.704-.118l5.393-.082c3.772-.05 7.543-.073 11.315-.082 4.801-.016 9.594-.128 14.393-.266a476.81 476.81 0 0 1 11.152-.114c1.767-.012 3.534-.05 5.3-.112 7.835-.258 14.555-.38 20.657 5.066 3.085 3.13 5.832 6.47 8.493 9.965 1.761 2.246 3.73 4.213 5.8 6.175 3.124 3.07 5.993 6.3 8.836 9.63 1.72 1.924 3.534 3.668 5.415 5.433 4.489 4.399 8.09 10.51 8.446 16.905l.013 2.906.022 3.34.008 3.664.02 3.859c.02 4.226.031 8.452.041 12.678l.013 4.37c.019 6.848.033 13.696.041 20.543.01 7.893.036 15.784.077 23.676.03 6.108.045 12.215.048 18.322.002 3.644.011 7.287.036 10.931.028 4.072.024 8.143.017 12.215l.039 3.628c-.057 9.137-1.858 16.307-8.321 23.025l-2.364 2.5-1.334 1.383a458.647 458.647 0 0 0-5.095 5.43c-6.07 6.533-12.156 13.026-18.563 19.23-1.949 1.889-1.949 1.889-3.462 4.463-2.667 2.737-4.16 3.062-7.916 3.22l-2.213.018-2.358.075c-2.573.073-5.145.107-7.719.135l-5.398.086c-3.777.053-7.555.082-11.333.1-4.808.026-9.61.146-14.416.289-3.722.094-7.442.12-11.166.127-1.77.015-3.539.055-5.307.12-7.825.273-14.572.422-20.672-5.015-3.079-3.122-5.814-6.459-8.47-9.944-1.923-2.44-4.094-4.574-6.34-6.717-3.277-3.229-6.312-6.589-9.3-10.085-1.92-2.153-3.945-4.154-6.012-6.165-5.596-5.541-7.762-10.084-7.864-17.96 0-1.624.006-3.248.016-4.872l.005-2.601c.005-2.73.018-5.461.03-8.192.006-1.856.01-3.712.014-5.568.011-4.54.028-9.08.049-13.619l-1.692.304c-20.334 3.587-40.767 5.72-61.308 7.696l-3.788.368c-3.194.306-6.39.598-9.587.882l-2.617.243c-15.443 1.284-30.624.156-46.008-1.243l-3.025-.268c-13.267-1.18-26.508-2.512-39.725-4.17l-2.05-.255c-10.808-1.36-10.808-1.36-13.2-2.557l.063 3.437c.073 4.244.119 8.487.157 12.731.02 1.83.047 3.66.082 5.49.049 2.644.071 5.288.089 7.932l.062 2.444c.003 7.635-2.424 14.42-7.738 20.028l-1.833 1.973c-.62.649-1.242 1.297-1.882 1.965a8694.162 8694.162 0 0 0-3.684 4c-1.25 1.335-2.5 2.668-3.753 4l-1.993 2.123c-3.844 4.084-7.7 8.144-11.783 11.991-1.837 1.805-1.837 1.805-3.023 3.932-2.617 4.054-4.685 5.72-9.463 6.758-4.802.479-9.608.497-14.43.505-1.795.023-3.59.047-5.385.073a813.2 813.2 0 0 1-11.28.045c-4.784-.006-9.561.093-14.344.22-3.71.082-7.417.094-11.127.088-1.761.007-3.523.038-5.283.095-7.822.229-14.509.305-20.591-5.131-3.085-3.13-5.834-6.47-8.497-9.962-1.763-2.245-3.732-4.212-5.801-6.175-3.078-3.024-5.894-6.208-8.7-9.484-2.798-3.121-5.819-6.006-8.847-8.902-3.854-4.16-5.389-7.346-5.417-13.038l-.039-3.556.004-3.874-.03-4.101a1679.05 1679.05 0 0 1-.036-11.12c-.002-2.319-.008-4.637-.016-6.955-.028-8.095-.04-16.19-.038-24.284a3461.3 3461.3 0 0 0-.077-22.602c-.04-6.477-.055-12.954-.054-19.432.001-3.865-.007-7.729-.04-11.594-.028-3.637-.028-7.273-.007-10.91.005-1.962-.02-3.924-.046-5.886C-.697 188.048.45 183.543 6 178l2.746-2.906 2.692-2.594c3.123-3.048 6.174-6.107 9-9.438 3.51-4.122 7.339-7.896 11.212-11.675l1.483-1.457 1.309-1.274c1.765-1.794 1.765-1.794 3.665-4.7 3.033-3.624 6.19-3.875 10.734-3.907Z"/>
    <path fill="#292831" d="m48.841 140.05 2.348-.086c2.558-.083 5.115-.119 7.674-.148l5.38-.096c3.763-.059 7.526-.09 11.29-.106 3.836-.022 7.666-.098 11.5-.226 33.467-1.095 33.467-1.095 41.945 5.303 3.536 3.393 6.25 7.083 8.744 11.288 1.9 3.005 4.237 5.172 6.84 7.583 13.642 13.505 19.477 22.257 19.607 41.578l.008 3.419.02 3.685c.02 3.993.031 7.986.041 11.979l.013 4.15c.019 6.497.033 12.993.041 19.49.01 7.469.036 14.938.077 22.407.03 5.797.045 11.594.048 17.392.002 3.452.011 6.905.036 10.357.028 3.85.024 7.701.017 11.552l.039 3.424c-.056 8.515-1.793 15.734-7.794 22.067l-1.833 1.973c-.62.649-1.242 1.297-1.882 1.965a8694.162 8694.162 0 0 0-3.684 4c-1.25 1.335-2.5 2.668-3.753 4l-1.993 2.123c-3.844 4.084-7.7 8.144-11.783 11.991-1.837 1.805-1.837 1.805-3.023 3.932-2.617 4.054-4.685 5.72-9.463 6.758-4.802.479-9.608.497-14.43.505-1.795.023-3.59.047-5.385.073a813.2 813.2 0 0 1-11.28.045c-4.784-.006-9.561.093-14.344.22-3.71.082-7.417.094-11.127.088-1.761.007-3.523.038-5.283.095-7.822.229-14.509.305-20.591-5.131-3.085-3.13-5.834-6.47-8.497-9.962-1.763-2.245-3.732-4.212-5.801-6.175-3.078-3.024-5.894-6.208-8.7-9.484-2.798-3.121-5.819-6.006-8.847-8.902-3.854-4.16-5.389-7.346-5.417-13.038l-.039-3.556.004-3.874-.03-4.101a1679.05 1679.05 0 0 1-.036-11.12c-.002-2.319-.008-4.637-.016-6.955-.028-8.095-.04-16.19-.038-24.284a3461.3 3461.3 0 0 0-.077-22.602c-.04-6.477-.055-12.954-.054-19.432.001-3.865-.007-7.729-.04-11.594-.028-3.637-.028-7.273-.007-10.91.005-1.962-.02-3.924-.046-5.886C-.697 188.048.45 183.543 6 178l2.746-2.906 2.692-2.594c3.123-3.048 6.174-6.107 9-9.438 3.51-4.122 7.339-7.896 11.212-11.675l1.483-1.457 1.309-1.274c1.765-1.794 1.765-1.794 3.665-4.7 3.033-3.624 6.19-3.875 10.734-3.907ZM470 143c9.007 6.755 9.007 6.755 11.816 9.586l1.866 1.87 1.88 1.919 1.987 2.006c3.8 3.86 7.489 7.779 10.97 11.931 1.625 1.852 3.374 3.502 5.168 5.188 4.49 4.399 8.09 10.51 8.447 16.905l.013 2.906.022 3.34.008 3.664.02 3.859c.02 4.226.031 8.452.041 12.678l.013 4.37c.019 6.848.033 13.696.041 20.543.01 7.893.036 15.784.077 23.676.03 6.108.045 12.215.048 18.322.002 3.644.011 7.287.036 10.931.028 4.072.024 8.143.017 12.215l.039 3.628c-.057 9.137-1.858 16.307-8.322 23.026l-2.363 2.5-1.334 1.382a458.647 458.647 0 0 0-5.095 5.43c-6.07 6.533-12.156 13.026-18.563 19.23-2.092 2.164-3.952 4.544-5.832 6.895h-81V186h80v-43Z"/>
    <path fill="#54535A" d="m49 140.224 2.396-.032a436.82 436.82 0 0 1 7.819.011c1.817-.004 3.634-.01 5.45-.017 3.806-.01 7.611.004 11.417.032 4.87.034 9.74.014 14.61-.022 3.752-.021 7.503-.014 11.255.001 1.795.004 3.59 0 5.385-.015 2.514-.015 5.025.008 7.539.042l2.234-.037c4.244.104 6.464.942 9.403 3.862L129 147l-1 2-5-5-1 42H42v184c46.33 6.019 46.33 6.019 86-6-1.306 2.913-2.41 5.096-5 7-2.62.358-5.017.533-7.646.579l-2.357.074c-2.578.074-5.156.124-7.735.167l-2.68.049c-4.691.08-9.382.138-14.073.181-3.864.04-7.722.123-11.583.246-4.68.15-9.354.223-14.036.244-1.772.02-3.544.065-5.315.138-7.849.302-14.6.487-20.723-4.968-3.087-3.13-5.832-6.473-8.49-9.97-1.76-2.248-3.73-4.215-5.8-6.177-3.077-3.025-5.893-6.209-8.699-9.485-2.798-3.121-5.819-6.006-8.847-8.902-3.854-4.16-5.389-7.346-5.417-13.038l-.039-3.556.004-3.874-.03-4.101a1679.05 1679.05 0 0 1-.036-11.12c-.002-2.319-.008-4.637-.016-6.955-.028-8.095-.04-16.19-.038-24.284a3461.3 3461.3 0 0 0-.077-22.602c-.04-6.477-.055-12.954-.054-19.432.001-3.865-.007-7.729-.04-11.594-.028-3.637-.028-7.273-.007-10.91.005-1.962-.02-3.924-.046-5.886C-.697 188.048.45 183.543 6 178l2.746-2.906 2.691-2.594c3.124-3.048 6.175-6.107 9-9.437 3.511-4.123 7.34-7.897 11.213-11.676l1.483-1.457 1.309-1.274c1.767-1.793 1.767-1.793 3.655-4.711 3.08-3.68 6.31-3.797 10.903-3.721ZM397.031 140.255l2.407-.022c2.616-.016 5.23.011 7.847.04 1.822.001 3.644 0 5.465-.003 3.814 0 7.628.021 11.442.058 4.888.045 9.775.046 14.664.033 3.76-.007 7.52.006 11.28.026 1.803.008 3.605.01 5.408.007 2.518-.001 5.036.024 7.554.057l2.256-.015c3.573.073 5.328.305 8.14 2.598L475 145l-1 2-3-3-1 42h-80v185c-5.538-4.43-5.538-4.43-8.062-7.5-3.145-3.688-6.49-7.1-9.938-10.5-3.96-3.91-7.741-7.882-11.344-12.129-1.878-2.122-3.875-4.082-5.906-6.058-5.095-5.046-7.524-9.196-7.879-16.439l-.005-2.863-.013-3.305.002-3.596-.01-3.81a4346.29 4346.29 0 0 1-.012-10.327c-.001-2.153-.003-4.306-.006-6.458-.009-7.517-.013-15.033-.012-22.55 0-6.996-.01-13.993-.026-20.99-.013-6.015-.018-12.03-.018-18.045 0-3.59-.002-7.178-.013-10.767-.012-4.005-.007-8.01 0-12.014-.007-1.183-.012-2.365-.018-3.584.033-8.485.338-14.672 6.448-21.065l2.44-2.586a600.344 600.344 0 0 1 7.712-7.723c1.7-1.732 3.273-3.531 4.848-5.378 3.606-4.196 7.504-8.064 11.461-11.925l1.484-1.458 1.309-1.274c1.767-1.793 1.767-1.793 3.653-4.713 3.09-3.69 6.334-3.782 10.936-3.688Z"/>
    <path fill="#201F26" d="M470 143c9.007 6.755 9.007 6.755 11.816 9.586l1.866 1.87 1.88 1.919 1.987 2.006c3.8 3.86 7.489 7.779 10.97 11.931 1.625 1.852 3.374 3.502 5.168 5.188 4.49 4.399 8.09 10.51 8.447 16.905l.013 2.906.022 3.34.008 3.664.02 3.859c.02 4.226.031 8.452.041 12.678l.013 4.37c.019 6.848.033 13.696.041 20.543.01 7.893.036 15.784.077 23.676.03 6.108.045 12.215.048 18.322.002 3.644.011 7.287.036 10.931.028 4.072.024 8.143.017 12.215l.039 3.628c-.057 9.137-1.858 16.307-8.322 23.026l-2.363 2.5-1.334 1.382a458.647 458.647 0 0 0-5.095 5.43C488.727 352.053 482.003 359.148 475 366l-2 2-3 1V143ZM122 143c9.007 6.755 9.007 6.755 12.691 10.46l2.424 2.43 2.447 2.485 2.46 2.46c6.148 6.194 12.16 12.51 17.353 19.54l1.46 1.96c4.875 6.969 3.323 18.096 3.342 26.224l.02 3.685c.02 3.993.031 7.986.041 11.979l.013 4.15c.019 6.497.033 12.993.041 19.49.01 7.469.036 14.938.077 22.407.03 5.797.045 11.594.048 17.392.002 3.452.011 6.905.036 10.357.028 3.85.024 7.701.017 11.552l.039 3.424c-.056 8.515-1.793 15.734-7.794 22.067l-1.833 1.973c-.62.649-1.242 1.297-1.882 1.965a8694.162 8694.162 0 0 0-3.684 4c-1.25 1.335-2.5 2.668-3.754 4l-1.98 2.11c-4.443 4.717-8.943 9.366-13.582 13.89l-2 2-6 4V143Z"/>
    <path fill="#1F1E25" d="M390 326h79v44h-79v-44ZM43 326h78v44H43v-44Z"/>
    <path fill="#54535A" d="M211 256h82c0 23.704 0 23.704-4.465 28.61-4.166 3.226-7.462 5.482-12.738 6.023l-2.447.254-2.6.238-2.696.255c-40.556 3.58-40.556 3.58-52.679-5.755C207.593 277.025 211 268.31 211 256Z"/>
    <path fill="#7F7E83" d="M293 256h55v26a825.034 825.034 0 0 1-46.375 6.313l-2.563.28c-2.423.265-4.848.52-7.273.77l-2.206.243c-3.41.339-6.321.558-9.583-.606.543-.315 1.085-.63 1.645-.953 5.083-3.04 8.422-5.25 10.355-11.047l1-21Z"/>
    <path fill="#A7A7AC" d="M283 223c10.03-.283 19.759.576 29.688 1.813l4.52.545C327.53 226.62 337.768 228.14 348 230v26h-55l-1-21c-3.452-7.447-3.452-7.447-9-12Z"/>
    <path fill="#A6A6AA" d="M163 189h1c1.03 4.3 1.214 8.527 1.316 12.926l.063 2.265c.065 2.374.125 4.748.184 7.121l.13 4.846c.107 3.947.208 7.895.307 11.842l3.665-.459c4.54-.566 9.08-1.123 13.62-1.677 1.956-.24 3.91-.483 5.865-.728 20.833-2.61 20.833-2.61 30.85-2.136l-2.25 2c-9 9.818-7.048 16.97-7.75 31h-46l-1-67Z"/>
  </g>
   <g transform="translate(512, 0) rotate(90, 256, 256)">
    <path fill="#7E7D82" d="m48.841 140.05 2.348-.086c2.558-.083 5.115-.119 7.674-.148l5.38-.096c3.763-.059 7.526-.09 11.29-.106 3.836-.022 7.666-.098 11.5-.226 33.467-1.095 33.467-1.095 41.945 5.303 3.536 3.393 6.25 7.083 8.744 11.288 1.9 3.005 4.237 5.172 6.84 7.583 4.025 3.985 7.823 8.079 11.438 12.438l1.656 1.922c8.165 10.005 7.853 21.403 8.032 33.703.033 1.592.067 3.185.103 4.777.084 3.866.151 7.732.209 11.598l3.284-.411c19.399-2.419 38.798-4.749 58.279-6.402l2.163-.19c19.425-1.694 38.135-.616 57.524 1.253l3.607.34c47.316 4.468 47.316 4.468 56.143 7.41-.01-1.145-.02-2.29-.032-3.469-.036-4.27-.059-8.54-.078-12.81-.01-1.843-.024-3.687-.04-5.53-.025-2.659-.037-5.317-.045-7.976l-.032-2.476c-.001-7.545 1.016-13.09 6.415-18.739l2.44-2.586a600.345 600.345 0 0 1 7.712-7.723c1.7-1.732 3.273-3.531 4.848-5.379 3.606-4.195 7.504-8.063 11.461-11.924l1.484-1.458 1.309-1.274c1.765-1.794 1.765-1.794 3.663-4.702 2.262-2.702 2.832-2.94 6.515-3.776 1.417-.063 2.835-.093 4.253-.097l2.357-.076c2.569-.072 5.135-.098 7.704-.118l5.393-.082c3.772-.05 7.543-.073 11.315-.082 4.801-.016 9.594-.128 14.393-.266a476.81 476.81 0 0 1 11.152-.114c1.767-.012 3.534-.05 5.3-.112 7.835-.258 14.555-.38 20.657 5.066 3.085 3.13 5.832 6.47 8.493 9.965 1.761 2.246 3.73 4.213 5.8 6.175 3.124 3.07 5.993 6.3 8.836 9.63 1.72 1.924 3.534 3.668 5.415 5.433 4.489 4.399 8.09 10.51 8.446 16.905l.013 2.906.022 3.34.008 3.664.02 3.859c.02 4.226.031 8.452.041 12.678l.013 4.37c.019 6.848.033 13.696.041 20.543.01 7.893.036 15.784.077 23.676.03 6.108.045 12.215.048 18.322.002 3.644.011 7.287.036 10.931.028 4.072.024 8.143.017 12.215l.039 3.628c-.057 9.137-1.858 16.307-8.321 23.025l-2.364 2.5-1.334 1.383a458.647 458.647 0 0 0-5.095 5.43c-6.07 6.533-12.156 13.026-18.563 19.23-1.949 1.889-1.949 1.889-3.462 4.463-2.667 2.737-4.16 3.062-7.916 3.22l-2.213.018-2.358.075c-2.573.073-5.145.107-7.719.135l-5.398.086c-3.777.053-7.555.082-11.333.1-4.808.026-9.61.146-14.416.289-3.722.094-7.442.12-11.166.127-1.77.015-3.539.055-5.307.12-7.825.273-14.572.422-20.672-5.015-3.079-3.122-5.814-6.459-8.47-9.944-1.923-2.44-4.094-4.574-6.34-6.717-3.277-3.229-6.312-6.589-9.3-10.085-1.92-2.153-3.945-4.154-6.012-6.165-5.596-5.541-7.762-10.084-7.864-17.96 0-1.624.006-3.248.016-4.872l.005-2.601c.005-2.73.018-5.461.03-8.192.006-1.856.01-3.712.014-5.568.011-4.54.028-9.08.049-13.619l-1.692.304c-20.334 3.587-40.767 5.72-61.308 7.696l-3.788.368c-3.194.306-6.39.598-9.587.882l-2.617.243c-15.443 1.284-30.624.156-46.008-1.243l-3.025-.268c-13.267-1.18-26.508-2.512-39.725-4.17l-2.05-.255c-10.808-1.36-10.808-1.36-13.2-2.557l.063 3.437c.073 4.244.119 8.487.157 12.731.02 1.83.047 3.66.082 5.49.049 2.644.071 5.288.089 7.932l.062 2.444c.003 7.635-2.424 14.42-7.738 20.028l-1.833 1.973c-.62.649-1.242 1.297-1.882 1.965a8694.162 8694.162 0 0 0-3.684 4c-1.25 1.335-2.5 2.668-3.753 4l-1.993 2.123c-3.844 4.084-7.7 8.144-11.783 11.991-1.837 1.805-1.837 1.805-3.023 3.932-2.617 4.054-4.685 5.72-9.463 6.758-4.802.479-9.608.497-14.43.505-1.795.023-3.59.047-5.385.073a813.2 813.2 0 0 1-11.28.045c-4.784-.006-9.561.093-14.344.22-3.71.082-7.417.094-11.127.088-1.761.007-3.523.038-5.283.095-7.822.229-14.509.305-20.591-5.131-3.085-3.13-5.834-6.47-8.497-9.962-1.763-2.245-3.732-4.212-5.801-6.175-3.078-3.024-5.894-6.208-8.7-9.484-2.798-3.121-5.819-6.006-8.847-8.902-3.854-4.16-5.389-7.346-5.417-13.038l-.039-3.556.004-3.874-.03-4.101a1679.05 1679.05 0 0 1-.036-11.12c-.002-2.319-.008-4.637-.016-6.955-.028-8.095-.04-16.19-.038-24.284a3461.3 3461.3 0 0 0-.077-22.602c-.04-6.477-.055-12.954-.054-19.432.001-3.865-.007-7.729-.04-11.594-.028-3.637-.028-7.273-.007-10.91.005-1.962-.02-3.924-.046-5.886C-.697 188.048.45 183.543 6 178l2.746-2.906 2.692-2.594c3.123-3.048 6.174-6.107 9-9.438 3.51-4.122 7.339-7.896 11.212-11.675l1.483-1.457 1.309-1.274c1.765-1.794 1.765-1.794 3.665-4.7 3.033-3.624 6.19-3.875 10.734-3.907Z"/>
    <path fill="#292831" d="m48.841 140.05 2.348-.086c2.558-.083 5.115-.119 7.674-.148l5.38-.096c3.763-.059 7.526-.09 11.29-.106 3.836-.022 7.666-.098 11.5-.226 33.467-1.095 33.467-1.095 41.945 5.303 3.536 3.393 6.25 7.083 8.744 11.288 1.9 3.005 4.237 5.172 6.84 7.583 13.642 13.505 19.477 22.257 19.607 41.578l.008 3.419.02 3.685c.02 3.993.031 7.986.041 11.979l.013 4.15c.019 6.497.033 12.993.041 19.49.01 7.469.036 14.938.077 22.407.03 5.797.045 11.594.048 17.392.002 3.452.011 6.905.036 10.357.028 3.85.024 7.701.017 11.552l.039 3.424c-.056 8.515-1.793 15.734-7.794 22.067l-1.833 1.973c-.62.649-1.242 1.297-1.882 1.965a8694.162 8694.162 0 0 0-3.684 4c-1.25 1.335-2.5 2.668-3.753 4l-1.993 2.123c-3.844 4.084-7.7 8.144-11.783 11.991-1.837 1.805-1.837 1.805-3.023 3.932-2.617 4.054-4.685 5.72-9.463 6.758-4.802.479-9.608.497-14.43.505-1.795.023-3.59.047-5.385.073a813.2 813.2 0 0 1-11.28.045c-4.784-.006-9.561.093-14.344.22-3.71.082-7.417.094-11.127.088-1.761.007-3.523.038-5.283.095-7.822.229-14.509.305-20.591-5.131-3.085-3.13-5.834-6.47-8.497-9.962-1.763-2.245-3.732-4.212-5.801-6.175-3.078-3.024-5.894-6.208-8.7-9.484-2.798-3.121-5.819-6.006-8.847-8.902-3.854-4.16-5.389-7.346-5.417-13.038l-.039-3.556.004-3.874-.03-4.101a1679.05 1679.05 0 0 1-.036-11.12c-.002-2.319-.008-4.637-.016-6.955-.028-8.095-.04-16.19-.038-24.284a3461.3 3461.3 0 0 0-.077-22.602c-.04-6.477-.055-12.954-.054-19.432.001-3.865-.007-7.729-.04-11.594-.028-3.637-.028-7.273-.007-10.91.005-1.962-.02-3.924-.046-5.886C-.697 188.048.45 183.543 6 178l2.746-2.906 2.692-2.594c3.123-3.048 6.174-6.107 9-9.438 3.51-4.122 7.339-7.896 11.212-11.675l1.483-1.457 1.309-1.274c1.765-1.794 1.765-1.794 3.665-4.7 3.033-3.624 6.19-3.875 10.734-3.907ZM470 143c9.007 6.755 9.007 6.755 11.816 9.586l1.866 1.87 1.88 1.919 1.987 2.006c3.8 3.86 7.489 7.779 10.97 11.931 1.625 1.852 3.374 3.502 5.168 5.188 4.49 4.399 8.09 10.51 8.447 16.905l.013 2.906.022 3.34.008 3.664.02 3.859c.02 4.226.031 8.452.041 12.678l.013 4.37c.019 6.848.033 13.696.041 20.543.01 7.893.036 15.784.077 23.676.03 6.108.045 12.215.048 18.322.002 3.644.011 7.287.036 10.931.028 4.072.024 8.143.017 12.215l.039 3.628c-.057 9.137-1.858 16.307-8.322 23.026l-2.363 2.5-1.334 1.382a458.647 458.647 0 0 0-5.095 5.43c-6.07 6.533-12.156 13.026-18.563 19.23-2.092 2.164-3.952 4.544-5.832 6.895h-81V186h80v-43Z"/>
    <path fill="#54535A" d="m49 140.224 2.396-.032a436.82 436.82 0 0 1 7.819.011c1.817-.004 3.634-.01 5.45-.017 3.806-.01 7.611.004 11.417.032 4.87.034 9.74.014 14.61-.022 3.752-.021 7.503-.014 11.255.001 1.795.004 3.59 0 5.385-.015 2.514-.015 5.025.008 7.539.042l2.234-.037c4.244.104 6.464.942 9.403 3.862L129 147l-1 2-5-5-1 42H42v184c46.33 6.019 46.33 6.019 86-6-1.306 2.913-2.41 5.096-5 7-2.62.358-5.017.533-7.646.579l-2.357.074c-2.578.074-5.156.124-7.735.167l-2.68.049c-4.691.08-9.382.138-14.073.181-3.864.04-7.722.123-11.583.246-4.68.15-9.354.223-14.036.244-1.772.02-3.544.065-5.315.138-7.849.302-14.6.487-20.723-4.968-3.087-3.13-5.832-6.473-8.49-9.97-1.76-2.248-3.73-4.215-5.8-6.177-3.077-3.025-5.893-6.209-8.699-9.485-2.798-3.121-5.819-6.006-8.847-8.902-3.854-4.16-5.389-7.346-5.417-13.038l-.039-3.556.004-3.874-.03-4.101a1679.05 1679.05 0 0 1-.036-11.12c-.002-2.319-.008-4.637-.016-6.955-.028-8.095-.04-16.19-.038-24.284a3461.3 3461.3 0 0 0-.077-22.602c-.04-6.477-.055-12.954-.054-19.432.001-3.865-.007-7.729-.04-11.594-.028-3.637-.028-7.273-.007-10.91.005-1.962-.02-3.924-.046-5.886C-.697 188.048.45 183.543 6 178l2.746-2.906 2.691-2.594c3.124-3.048 6.175-6.107 9-9.437 3.511-4.123 7.34-7.897 11.213-11.676l1.483-1.457 1.309-1.274c1.767-1.793 1.767-1.793 3.655-4.711 3.08-3.68 6.31-3.797 10.903-3.721ZM397.031 140.255l2.407-.022c2.616-.016 5.23.011 7.847.04 1.822.001 3.644 0 5.465-.003 3.814 0 7.628.021 11.442.058 4.888.045 9.775.046 14.664.033 3.76-.007 7.52.006 11.28.026 1.803.008 3.605.01 5.408.007 2.518-.001 5.036.024 7.554.057l2.256-.015c3.573.073 5.328.305 8.14 2.598L475 145l-1 2-3-3-1 42h-80v185c-5.538-4.43-5.538-4.43-8.062-7.5-3.145-3.688-6.49-7.1-9.938-10.5-3.96-3.91-7.741-7.882-11.344-12.129-1.878-2.122-3.875-4.082-5.906-6.058-5.095-5.046-7.524-9.196-7.879-16.439l-.005-2.863-.013-3.305.002-3.596-.01-3.81a4346.29 4346.29 0 0 1-.012-10.327c-.001-2.153-.003-4.306-.006-6.458-.009-7.517-.013-15.033-.012-22.55 0-6.996-.01-13.993-.026-20.99-.013-6.015-.018-12.03-.018-18.045 0-3.59-.002-7.178-.013-10.767-.012-4.005-.007-8.01 0-12.014-.007-1.183-.012-2.365-.018-3.584.033-8.485.338-14.672 6.448-21.065l2.44-2.586a600.344 600.344 0 0 1 7.712-7.723c1.7-1.732 3.273-3.531 4.848-5.378 3.606-4.196 7.504-8.064 11.461-11.925l1.484-1.458 1.309-1.274c1.767-1.793 1.767-1.793 3.653-4.713 3.09-3.69 6.334-3.782 10.936-3.688Z"/>
    <path fill="#201F26" d="M470 143c9.007 6.755 9.007 6.755 11.816 9.586l1.866 1.87 1.88 1.919 1.987 2.006c3.8 3.86 7.489 7.779 10.97 11.931 1.625 1.852 3.374 3.502 5.168 5.188 4.49 4.399 8.09 10.51 8.447 16.905l.013 2.906.022 3.34.008 3.664.02 3.859c.02 4.226.031 8.452.041 12.678l.013 4.37c.019 6.848.033 13.696.041 20.543.01 7.893.036 15.784.077 23.676.03 6.108.045 12.215.048 18.322.002 3.644.011 7.287.036 10.931.028 4.072.024 8.143.017 12.215l.039 3.628c-.057 9.137-1.858 16.307-8.322 23.026l-2.363 2.5-1.334 1.382a458.647 458.647 0 0 0-5.095 5.43C488.727 352.053 482.003 359.148 475 366l-2 2-3 1V143ZM122 143c9.007 6.755 9.007 6.755 12.691 10.46l2.424 2.43 2.447 2.485 2.46 2.46c6.148 6.194 12.16 12.51 17.353 19.54l1.46 1.96c4.875 6.969 3.323 18.096 3.342 26.224l.02 3.685c.02 3.993.031 7.986.041 11.979l.013 4.15c.019 6.497.033 12.993.041 19.49.01 7.469.036 14.938.077 22.407.03 5.797.045 11.594.048 17.392.002 3.452.011 6.905.036 10.357.028 3.85.024 7.701.017 11.552l.039 3.424c-.056 8.515-1.793 15.734-7.794 22.067l-1.833 1.973c-.62.649-1.242 1.297-1.882 1.965a8694.162 8694.162 0 0 0-3.684 4c-1.25 1.335-2.5 2.668-3.754 4l-1.98 2.11c-4.443 4.717-8.943 9.366-13.582 13.89l-2 2-6 4V143Z"/>
    <path fill="#1F1E25" d="M390 326h79v44h-79v-44ZM43 326h78v44H43v-44Z"/>
    <path fill="#54535A" d="M211 256h82c0 23.704 0 23.704-4.465 28.61-4.166 3.226-7.462 5.482-12.738 6.023l-2.447.254-2.6.238-2.696.255c-40.556 3.58-40.556 3.58-52.679-5.755C207.593 277.025 211 268.31 211 256Z"/>
    <path fill="#7F7E83" d="M293 256h55v26a825.034 825.034 0 0 1-46.375 6.313l-2.563.28c-2.423.265-4.848.52-7.273.77l-2.206.243c-3.41.339-6.321.558-9.583-.606.543-.315 1.085-.63 1.645-.953 5.083-3.04 8.422-5.25 10.355-11.047l1-21Z"/>
    <path fill="#A7A7AC" d="M283 223c10.03-.283 19.759.576 29.688 1.813l4.52.545C327.53 226.62 337.768 228.14 348 230v26h-55l-1-21c-3.452-7.447-3.452-7.447-9-12Z"/>
    <path fill="#A6A6AA" d="M163 189h1c1.03 4.3 1.214 8.527 1.316 12.926l.063 2.265c.065 2.374.125 4.748.184 7.121l.13 4.846c.107 3.947.208 7.895.307 11.842l3.665-.459c4.54-.566 9.08-1.123 13.62-1.677 1.956-.24 3.91-.483 5.865-.728 20.833-2.61 20.833-2.61 30.85-2.136l-2.25 2c-9 9.818-7.048 16.97-7.75 31h-46l-1-67Z"/>
  </g>
</svg>
