<svg xmlns="http://www.w3.org/2000/svg" viewBox="0 0 512 512">
  <path fill="#1D1C23" d="M383.5 1.5c7.56 4.694 11.336 11.066 13.5 19.5.38 3.096.397 6.14.365 9.256l.01 2.687c.006 2.948-.008 5.896-.022 8.843 0 2.123.003 4.246.007 6.369.005 4.559 0 9.118-.01 13.677-.017 7.206-.008 14.411.004 21.617.03 19.19.029 38.38.01 57.57-.012 12.62-.01 25.24.019 37.86.015 7.166.007 14.333-.017 21.5-.01 4.45 0 8.9.017 13.35.003 2.068-.002 4.135-.016 6.202-.018 2.817-.006 5.632.014 8.448l-.039 2.493c.062 3.98.223 5.698 3.112 8.55L403 241c4.975 6.884 4.57 14.924 4.438 23.063l.021 3.72c-.058 8.27-.47 14.718-6.022 21.217-2.437 2-2.437 2-4.437 2v44l11 3c2.641 1.162 5.064 2.294 7.563 3.688l1.93 1.059c5.67 3.195 10.686 6.873 15.507 11.253l2.738 2.457c17.385 16.423 26.994 38.384 27.713 62.187.372 27.117-8.18 49.275-26.885 68.91-17.361 16.479-39.432 25.093-63.316 24.884l-3.703-.023c-14.915-.27-27.3-3.356-40.547-10.415l-2.566-1.332c-20.854-11.615-34.58-31.101-41.837-53.531-6.89-24.652-2.49-49.965 9.528-72.137 12.032-19.983 30.595-31.488 51.875-40l1-44-4-2c-6.913-7.116-6.339-15.596-6.313-24.938l-.048-3.458c-.005-8.935 1.002-15.835 7.361-22.604l2-1 .007-3.348c.059-26.892.135-53.783.229-80.674.045-13.005.084-26.01.11-39.014.023-11.335.057-22.67.103-34.006.024-6.001.042-12.003.049-18.004.006-5.651.026-11.302.056-16.953.01-2.072.013-4.143.011-6.215-.002-2.835.015-5.669.036-8.504l-.014-2.467c.103-8.41 2.395-16.69 8.413-22.815 7.595-6.522 19.37-7.469 28.5-3.5Zm-51.25 382.813c-11.453 12.072-14.767 26.534-14.523 42.554.55 14.9 7.956 26.743 18.535 36.84 11.106 9.3 25.144 14.566 39.738 13.293 16.08-2.317 29.593-8.853 39.75-21.688 9.453-13.263 12.718-27.396 10.074-43.445-2.931-13.755-10.603-26.179-22.043-34.476-3.616-2.533-3.616-2.533-7.781-3.391l-.883 2.012c-3.483 7.503-6.97 12.367-15.004 15.484-6.535 1.558-14.102 1.413-20.3-1.324-5.98-3.866-9.485-9.6-11.813-16.172-5.503 0-11.875 6.672-15.75 10.313ZM151.5 1.5c7.56 4.694 11.335 11.066 13.5 19.5.38 3.093.397 6.135.365 9.249l.01 2.685c.006 2.946-.008 5.891-.022 8.837 0 2.12.003 4.242.007 6.363.005 4.556 0 9.111-.01 13.667-.017 7.202-.008 14.404.004 21.606.03 19.18.029 38.36.01 57.54-.012 12.612-.01 25.225.019 37.837.015 7.162.007 14.323-.017 21.485-.01 4.45 0 8.898.017 13.347.003 2.066-.002 4.13-.016 6.196-.018 2.816-.006 5.63.014 8.447l-.039 2.484c.066 4.259.242 5.762 3.087 9.143L171 242c4.74 6.941 4.214 13.577 4.25 21.75l.063 3.5c.044 9.74-1.37 16.63-8.313 23.75h-2l1 44 15 6c8.7 4.87 15.865 10.08 23 17l1.855 1.633c13.824 12.59 23.352 34.415 24.269 52.86.718 25.878-4.225 48.143-21.124 68.507l-1.32 1.762c-7.236 9.294-18.175 16.225-28.68 21.238l-2.86 1.367c-22.062 9.864-47.274 9.208-69.827 1.348-23.109-9.096-40.636-27.191-50.504-49.717-9.12-22.515-8.184-47.867.504-70.248C61.535 375.073 68.043 365.981 77 357l2.367-2.438c4.758-4.613 9.841-8.107 15.57-11.375l1.915-1.094c5.631-3.071 10.945-4.837 17.148-7.093l1-44-4-2c-6.862-7.266-6.365-15.372-6.375-24.813l-.074-3.736c-.023-7.06.172-13.556 4.449-19.451l2.546-1.575c2.894-2.86 3.05-4.59 3.112-8.579l-.039-2.505.019-2.676c.015-2.966-.006-5.93-.026-8.896.003-2.124.01-4.248.017-6.372.012-4.577.009-9.155-.007-13.732-.024-7.24-.013-14.481.004-21.722.024-12.762.019-25.524.006-38.286-.019-19.198-.014-38.395.02-57.593.012-7.194.007-14.389-.01-21.584a3950.1 3950.1 0 0 1 .004-13.446c0-2.075-.004-4.15-.014-6.225-.013-2.838-.007-5.677.003-8.515l-.025-2.471c.058-7.074 1.627-13.126 5.515-19.073C128.65-.404 140.171-3.425 151.5 1.5Zm-50.688 382.313c-10.376 10.892-15.683 24.333-15.847 39.414.618 12.63 4.748 22.551 12.035 32.773l2.25 3.188c10.707 10.95 24.675 17.447 40 18.125 16.308-.49 29.446-6.827 40.75-18.313l1.777-1.781c4.18-4.51 6.81-9.595 9.223-15.219l.977-2.16c4.222-11.187 3.644-26.337-.79-37.313L190 400l-1.063-2.371C183.941 387.619 175.672 379.52 166 374h-2l-.813 1.977c-3.345 7.462-7.19 11.643-14.574 15.16-6.455 2.132-14.555 1.793-20.8-.965-5.98-3.866-9.485-9.6-11.813-16.172-5.537 0-11.401 6.172-15.188 9.813Z"/>
  <path fill="#F6C05F" d="M348 335c.273 5.426.472 10.847.604 16.278.055 1.845.13 3.689.226 5.531.776 15.362.776 15.362-3.194 19.883-2.817 1.77-5.575 3.026-8.636 4.308-9.42 7.416-15.46 19.417-18 31-1.511 17.792 1.386 32.463 13.031 46.438 10.737 11.514 24.076 16.727 39.531 17.812 14.375-.278 26.942-5.667 37.438-15.25h2c.26-.565.52-1.13.79-1.71 1.324-2.506 2.89-4.644 4.585-6.915 8.62-12.275 10.87-25.798 8.45-40.508-2.59-12.153-8.986-24.04-18.825-31.867l-2.532-.937c-3.318-1.28-5.12-2.357-7.468-5.063-1.76-6.366-.93-13.356-.625-19.875.05-1.851.096-3.703.137-5.555.11-4.526.282-9.047.488-13.57 1.418.294 2.834.594 4.25.896l2.391.504c3.66.931 6.893 2.493 10.234 4.225l2.095 1.075c23.393 12.3 37.632 31.896 46.128 56.476 6.12 22.855 2.54 48.457-8.801 69.035-12.319 21.002-31.8 35.988-55.172 42.603-8.029 2.045-15.607 2.696-23.875 2.623l-3.703-.022c-14.915-.27-27.3-3.356-40.547-10.415l-2.566-1.332c-20.854-11.615-34.58-31.101-41.837-53.531-6.89-24.652-2.49-49.965 9.528-72.137 9.862-16.379 33.131-40 53.875-40Z"/>
  <path fill="#F6C161" d="M116 335c.248 5.444.429 10.885.55 16.333.05 1.851.118 3.702.204 5.552.706 15.431.706 15.431-2.875 19.562-2.652 1.557-2.652 1.557-5.298 2.567-8.168 3.12-14.267 12.932-17.769 20.58-5.501 14.078-6.31 28.173-1.117 42.48 6.633 14.873 17.186 25.127 32.39 30.961 14.309 4.737 28.407 3.715 42.165-2.66 11.678-6.29 20.613-16.183 25.75-28.375l.91-2.023c4.25-11.265 3.748-26.382-.722-37.45L189 400l-1.063-2.371c-3.353-6.72-8.606-14.788-15.67-17.79-3.507-1.618-5.698-2.927-8.267-5.839-1.88-6.374-1.027-13.39-.688-19.938.056-1.846.106-3.693.15-5.54.122-4.512.311-9.015.538-13.522 6.289 1.737 12.182 3.728 18 6.688l2.087 1.059c5.92 3.098 10.993 6.716 15.913 11.253l2.734 2.457c15.126 14.27 26.343 34.986 27.39 56.036.718 25.878-4.225 48.143-21.124 68.507l-1.32 1.762c-7.236 9.294-18.175 16.225-28.68 21.238l-2.86 1.367c-22.062 9.864-47.274 9.208-69.827 1.348-23.109-9.096-40.636-27.191-50.504-49.717-9.12-22.515-8.184-47.867.504-70.248C61.535 375.073 68.043 365.981 77 357l2.367-2.438C87.8 346.387 103.72 335 116 335Z"/>
  <path fill="#F8D087" d="M348 335c.273 5.426.472 10.847.604 16.278.055 1.845.13 3.689.226 5.531.776 15.362.776 15.362-3.194 19.883-2.817 1.77-5.575 3.026-8.636 4.308-9.42 7.416-15.46 19.417-18 31-1.511 17.792 1.386 32.463 13.031 46.438C343.301 470.524 356.126 474.113 372 477v35c-15.193 0-15.193 0-21.5-1.625l-2.162-.536c-6.845-1.797-13.094-4.512-19.338-7.839l-2.566-1.332c-20.854-11.615-34.58-31.101-41.837-53.531-6.89-24.652-2.49-49.965 9.528-72.137 9.862-16.379 33.131-40 53.875-40ZM116 335c.248 5.444.429 10.885.55 16.333.05 1.851.118 3.702.204 5.552.706 15.431.706 15.431-2.875 19.562-2.652 1.557-2.652 1.557-5.298 2.567-8.168 3.12-14.267 12.932-17.769 20.58-5.501 14.078-6.31 28.173-1.117 42.48 6.043 13.551 15.46 23.658 29.055 29.738 7.574 2.814 7.574 2.814 21.25 5.188v35c-15.174 0-15.174 0-21.438-1.625l-2.16-.542c-22.666-5.98-42.47-20.58-54.552-40.754-11.533-20.449-16.19-45.924-10.163-68.954C56.773 383.162 64.558 369.477 77 357l2.367-2.438C87.8 346.387 103.72 335 116 335Z"/>
  <path fill="#282730" d="M140 0v235l-21 1-4 1c-.07-28.138-.123-56.276-.155-84.414-.016-13.065-.037-26.13-.071-39.195-.03-11.388-.05-22.776-.056-34.164-.004-6.03-.013-12.059-.035-18.088-.02-5.677-.027-11.355-.022-17.032-.001-2.081-.007-4.162-.019-6.244-.015-2.848-.01-5.695-.003-8.543l-.026-2.479c.054-7.082 1.618-13.136 5.512-19.091C126.665 1.495 130.748 0 140 0Z"/>
  <path fill="#292730" d="M372 0v235l-21 1-4 1c-.07-28.007-.123-56.015-.155-84.022-.016-13.005-.037-26.01-.071-39.014-.03-11.335-.05-22.67-.056-34.006-.004-6.001-.013-12.003-.035-18.004-.02-5.651-.027-11.302-.022-16.953-.001-2.072-.007-4.144-.019-6.215-.015-2.835-.01-5.669-.003-8.504l-.026-2.467c.065-8.36 2.336-16.764 8.387-22.815 6.038-4.56 9.025-5 17-5Z"/>
  <path fill="#282730" d="m347 291 8 2 17 1v99c-10.77-1.077-14.175-2.497-20.703-10.219-3.269-4.49-3.628-8.338-3.711-13.812l-.059-2.45c-.06-2.672-.107-5.346-.152-8.019l-.115-5.58c-.4-20.638-.357-41.28-.26-61.92ZM115 291l8 2 17 1v99c-10.77-1.077-14.175-2.497-20.703-10.219-3.269-4.49-3.628-8.338-3.711-13.812l-.059-2.45c-.06-2.672-.107-5.346-.152-8.019l-.115-5.58c-.4-20.638-.357-41.28-.26-61.92Z"/>
  <path fill="#F8D085" d="M213 430c3.536.536 3.536.536 5 2 .992 17.517-5.573 32.92-17 46-10.647 11.53-26.355 19.437-42.176 20.09-1.941.03-3.884-.023-5.824-.09-1-1-1-1-1.125-3.5C152 492 152 492 153 491c1.991-.331 3.983-.657 5.98-.95 17.767-2.621 30.918-9.382 42.02-24.05 6.068-9.405 9.248-20.983 9.727-32.11C211 432 211 432 213 430ZM445 430c3.536.536 3.536.536 5 2 1.653 15.165-4.882 30.756-13.98 42.54-10.514 12.81-25.46 21.315-42.02 23.46-1.624.062-3.25.087-4.875.063l-2.367-.028L385 498c-.625-2.375-.625-2.375-1-5 2.848-2.848 6.042-2.762 9.875-3.313 11.774-1.909 21.145-5.68 30.125-13.687l1.863-1.582c10.402-9.48 15.771-23.286 16.762-37.106l.102-2.949C443 432 443 432 445 430Z"/>
</svg>
