<svg xmlns="http://www.w3.org/2000/svg" viewBox="0 0 512 512">
  <path fill="#F9D89A" d="m15.513 6.5 3.94-.03 4.306.029a1823.022 1823.022 0 0 1 17.2-.007c4.534.01 9.068-.001 13.602-.01 8.88-.014 17.762-.006 26.643.009 10.34.016 20.68.013 31.022.01 18.45-.006 36.9.008 55.35.032 17.906.024 35.812.031 53.717.021a44106.991 44106.991 0 0 1 67.816.008c7.209.005 14.418.003 21.627-.001 8.785-.005 17.57 0 26.356.02 4.482.01 8.965.015 13.448.008 4.104-.008 8.207 0 12.311.017 1.485.004 2.97.003 4.454-.003 16.395-.067 16.395-.067 23.383 6.334l2.011 1.84a462.757 462.757 0 0 1 9.737 9.695 125.193 125.193 0 0 0 8.158 7.622c6.535 5.653 12.492 11.937 18.56 18.081 7.222 7.376 7.222 7.376 14.846 14.325 6.427 5.477 12.225 11.672 18.155 17.675 5.454 5.516 10.89 10.97 16.798 16.005 4.633 4.12 8.934 8.606 13.297 13.007l2.969 2.983c1.813 1.821 3.624 3.644 5.434 5.467 4.356 4.413 4.356 4.413 8.933 8.59 2.912 3.345 3.04 4.766 3.043 9.137l.04 3.916-.034 4.296c.006 1.523.014 3.046.024 4.569.02 4.186.01 8.372-.005 12.558-.012 4.514.006 9.028.02 13.542.022 8.844.017 17.688.002 26.531a9260.63 9260.63 0 0 0-.007 21.559l.002 3.097.005 6.228c.015 19.476-.002 38.952-.029 58.428-.022 16.719-.018 33.437.005 50.156a26830.012 26830.012 0 0 1 .017 64.421l-.002 3.084c-.005 7.18.003 14.359.014 21.538.014 8.747.01 17.493-.016 26.24-.013 4.464-.018 8.928-.002 13.393.015 4.085.007 8.169-.02 12.253-.005 1.48-.002 2.96.01 4.44.015 2.007-.004 4.015-.024 6.023l-.002 3.383c-.856 4.068-2.307 5.525-5.627 7.981-3.217.626-3.217.626-6.94.626l-2.088.022c-2.316.017-4.63-.002-6.946-.02-1.675.005-3.35.012-5.024.022-4.607.019-9.213.006-13.819-.011-4.966-.013-9.932.002-14.898.014-9.73.018-19.46.01-29.19-.008a10793.865 10793.865 0 0 0-27.129-.013l-6.852.003c-20.208.008-40.416-.008-60.624-.038-19.616-.029-39.233-.036-58.85-.02a39906.09 39906.09 0 0 1-74.273-.006c-7.899-.005-15.797-.002-23.696.005-9.624.007-19.248 0-28.872-.024-4.913-.013-9.825-.019-14.737-.008-4.495.01-8.99.002-13.484-.021a562.11 562.11 0 0 0-4.883.005c-2.21.011-4.42-.002-6.63-.022l-3.722-.003c-3.987-.6-6.127-2.141-9.343-4.503l-2.617-.488c-3.271-.703-4.346-2.18-6.508-4.7l-2.363-2.75a629.48 629.48 0 0 1-10.625-13.355c-2.924-3.767-5.9-7.49-8.887-11.207-4.319-5.384-8.6-10.797-12.855-16.23A1493.167 1493.167 0 0 0 41 439.5c-4.318-5.383-8.6-10.792-12.851-16.228a650.995 650.995 0 0 0-7.188-9.026c-4.83-5.95-9.596-11.925-14.023-18.184l-2.098-2.964c-5.12-8.621-5.27-16.077-5.221-25.921a2364.282 2364.282 0 0 1-.011-16.975c.007-4.475-.004-8.95-.012-13.425-.013-8.761-.01-17.522-.002-26.283.007-7.12.008-14.238.005-21.357l-.002-3.07c0-2.059-.002-4.117-.003-6.176-.008-19.297.002-38.594.018-57.891a30219.3 30219.3 0 0 0-.003-49.69 43924.566 43924.566 0 0 1-.01-63.849l.001-3.056c.003-7.113-.002-14.226-.009-21.34-.008-8.663-.006-17.328.01-25.992.008-4.422.01-8.843.001-13.265-.009-4.046-.004-8.091.012-12.137.003-1.466.002-2.931-.006-4.397-.009-1.988.002-3.977.014-5.965l.002-3.35c.62-4.872 2.395-7.154 6.156-10.24 3.592-1.917 5.69-2.22 9.733-2.22Z"/>
  <path fill="#F7C468" d="m15.513 6.5 3.94-.03 4.306.029a1823.022 1823.022 0 0 1 17.2-.007c4.534.01 9.068-.001 13.602-.01 8.88-.014 17.762-.006 26.643.009 10.34.016 20.68.013 31.022.01 18.45-.006 36.9.008 55.35.032 17.906.024 35.812.031 53.717.021a44106.991 44106.991 0 0 1 67.816.008c7.209.005 14.418.003 21.627-.001 8.785-.005 17.57 0 26.356.02 4.482.01 8.965.015 13.448.008 4.104-.008 8.207 0 12.311.017 1.485.004 2.97.003 4.454-.003 16.395-.067 16.395-.067 23.383 6.334l2.011 1.84a462.757 462.757 0 0 1 9.737 9.695 125.193 125.193 0 0 0 8.158 7.622c6.535 5.653 12.492 11.937 18.56 18.081 7.222 7.376 7.222 7.376 14.846 14.325 6.427 5.477 12.225 11.672 18.155 17.675 5.452 5.513 10.885 10.97 16.79 16.005 4.145 3.67 8.035 7.614 11.948 11.528a1143.82 1143.82 0 0 0 4.502 4.462c.96.957 1.92 1.915 2.878 2.873l2.607 2.594c1.9 2.119 2.931 3.825 4.12 6.363l-2.587.005a645290.297 645290.297 0 0 0-169.856.367l-3.658.009c-19.573.044-39.145.084-58.717.124-20.07.04-40.14.084-60.21.132-12.393.03-24.786.056-37.179.078-8.488.016-16.977.035-25.465.058-4.904.012-9.807.024-14.71.03-4.484.007-8.968.018-13.452.032-1.627.004-3.254.007-4.882.008-2.202.002-4.403.01-6.605.018l-3.716.008c-3.02-.002-3.02-.002-5.963 1.131-1.334 3.287-1.13 6.736-1.139 10.24l-.016 3.908-.003 4.304-.015 4.564c-.014 4.187-.021 8.373-.028 12.56-.008 4.513-.021 9.025-.034 13.538-.022 7.82-.04 15.64-.056 23.461-.023 11.307-.05 22.614-.08 33.921-.048 18.344-.091 36.688-.132 55.032a195615.32 195615.32 0 0 1-.174 73.32c-.114 45.717-.22 91.435-.323 137.152-4.792 1.122-4.792 1.122-6.668.023-4.498-4.88-8.529-10.07-12.527-15.363-3.01-3.963-6.152-7.811-9.305-11.66-4.75-5.806-9.359-11.691-13.906-17.656-2.956-3.843-6.025-7.592-9.094-11.344-4.75-5.808-9.363-11.695-13.91-17.664-2.392-3.11-4.868-6.146-7.358-9.177-4.87-5.931-9.68-11.902-14.294-18.034l-1.336-1.726c-7.105-9.592-8.187-18.74-8.103-30.463a1771.069 1771.069 0 0 1-.007-16.966c.01-4.474-.001-8.948-.01-13.421-.014-8.754-.006-17.508.009-26.262.016-10.195.013-20.389.01-30.583-.006-18.185.008-36.37.032-54.556.024-17.65.031-35.299.021-52.948a42887.908 42887.908 0 0 1 .006-63.816l.002-3.055c.005-7.108.003-14.216-.001-21.324-.005-8.657 0-17.314.02-25.97.01-4.419.015-8.836.008-13.254-.007-4.042 0-8.084.017-12.126.004-1.464.003-2.928-.003-4.392-.008-1.987.004-3.973.017-5.96l.003-3.347C.244 14.086 2.02 11.804 5.78 8.72c3.592-1.917 5.69-2.22 9.733-2.22Z"/>
  <path fill="#F19F06" d="M3 11c7.39 7.152 14.022 14.962 20.484 22.95 2.945 3.57 5.973 7.062 9.016 10.55a562.964 562.964 0 0 1 13.191 15.691C48.413 63.503 51.201 66.753 54 70c5.1 5.921 10.077 11.93 15 18a8345.55 8345.55 0 0 0 4.25 5.188l2.23 2.73c1.895 2.318 3.795 4.632 5.696 6.945 2.79 3.4 5.556 6.817 8.305 10.25a404.26 404.26 0 0 0 2.913 3.58c1.2 1.461 2.373 2.946 3.543 4.432l1.965 2.445c1.535 3.397.26 4.947-.902 8.43-.3 3.147-.3 3.147-.262 6.485l-.022 3.921c.001 1.429.003 2.858.006 4.286l-.018 4.57c-.016 4.182-.02 8.364-.02 12.546-.004 4.511-.02 9.023-.033 13.534-.023 7.815-.038 15.63-.048 23.444-.014 11.3-.04 22.599-.068 33.898-.045 18.331-.082 36.663-.113 54.995-.03 17.808-.065 35.616-.105 53.424l-.007 3.326-.037 16.52C96.169 408.632 96.08 454.316 96 500c-4.792 1.122-4.792 1.122-6.668.023-4.498-4.88-8.529-10.07-12.527-15.363-3.01-3.963-6.152-7.811-9.305-11.66-4.75-5.806-9.359-11.691-13.906-17.656-2.956-3.843-6.025-7.592-9.094-11.344-4.75-5.808-9.363-11.695-13.91-17.664-2.392-3.11-4.868-6.146-7.358-9.177-4.87-5.931-9.68-11.902-14.294-18.034l-1.336-1.726c-7.105-9.592-8.187-18.74-8.103-30.463a1771.068 1771.068 0 0 1-.007-16.966c.01-4.474-.001-8.948-.01-13.421-.014-8.754-.006-17.508.009-26.262.016-10.195.013-20.389.01-30.583-.006-18.185.008-36.37.032-54.556.024-17.65.031-35.299.021-52.948a42887.925 42887.925 0 0 1 .006-63.816l.002-3.055c.005-7.108.003-14.216-.001-21.324-.005-8.657 0-17.314.02-25.97.01-4.419.015-8.836.008-13.254-.007-4.042 0-8.084.017-12.126.004-1.464.003-2.928-.003-4.392-.008-1.987.004-3.973.017-5.96l.003-3.347C.047 15.635 1.093 13.72 3 11Z"/>
  <path fill="#F7C56B" d="m123.846 138.86 3.178-.018 3.517-.003 3.68-.015c3.34-.012 6.682-.02 10.023-.024l6.257-.012c6.52-.013 13.042-.023 19.563-.027 7.536-.004 15.072-.022 22.608-.05 5.819-.022 11.638-.033 17.457-.034 3.479-.001 6.957-.007 10.435-.025 3.879-.02 7.758-.015 11.637-.008l3.504-.028 3.195.017 2.781-.005c2.764.443 3.68 1.136 5.319 3.372-.063 2.062-.063 2.062-1 4-3.058 1.937-5.459 2.254-9.041 2.267l-3.08.026-3.361-.002-3.554.02c-3.213.016-6.425.022-9.638.024-2.009 0-4.017.005-6.025.01-7.008.019-14.016.027-21.025.026-6.529-.002-13.058.02-19.587.051-5.61.026-11.219.037-16.828.036-3.349 0-6.697.005-10.046.026-3.735.02-7.469.014-11.203.002l-3.356.034c-7.528-.062-7.528-.062-11.482-2.55L116 144c2.231-4.611 2.662-5.124 7.846-5.14Z"/>
  <path fill="#F7C569" d="m363.928 138.866 3.157-.013 3.477.002 3.652-.01c3.31-.008 6.62-.012 9.93-.012 2.76-.001 5.521-.005 8.282-.008 6.513-.009 13.026-.011 19.539-.01 6.723 0 13.446-.01 20.17-.026 5.768-.013 11.536-.018 17.304-.018 3.447 0 6.894-.002 10.34-.013 3.844-.011 7.686-.007 11.53 0 1.145-.007 2.29-.012 3.47-.018l3.166.013 2.755-.002C483 139 483 139 486 141c-.25 2.375-.25 2.375-1 5-3.014 1.998-5.483 2.252-9.048 2.26l-3.084.022-3.366-.007-3.559.015c-3.217.012-6.433.014-9.65.012-2.687-.001-5.373.003-8.06.008-6.337.011-12.674.012-19.012.006a4690.29 4690.29 0 0 0-19.61.027c-5.615.018-11.23.024-16.844.02-3.353-.001-6.705.001-10.058.015a1751.8 1751.8 0 0 1-11.211-.006l-3.366.023-3.084-.02h-2.677c-2.838-.449-4.235-1.502-6.371-3.375.375-2.437.375-2.437 1-5 2.486-1.243 4.146-1.129 6.928-1.134ZM123.8 489.86l3.15-.018 3.483-.003 3.646-.015c3.31-.012 6.62-.02 9.93-.024 2.067-.003 4.134-.007 6.2-.012 6.465-.013 12.928-.023 19.392-.027a6827.23 6827.23 0 0 0 22.401-.05c5.768-.023 11.535-.033 17.302-.034 3.447-.001 6.893-.007 10.34-.025 3.845-.02 7.69-.015 11.535-.008l3.465-.028c1.048.005 2.095.01 3.174.017l2.756-.005c2.876.441 4.267 1.47 6.426 3.372-1.75 3.875-1.75 3.875-4 5-1.64.1-3.285.135-4.928.14l-3.157.018-3.477.003-3.652.015c-3.31.012-6.62.02-9.93.024l-6.2.012c-6.463.013-12.926.023-19.39.027-7.466.004-14.933.022-22.4.05-5.769.022-11.537.033-17.305.034-3.447.001-6.894.007-10.34.025-3.844.02-7.686.015-11.53.008l-3.47.028-3.166-.017-2.755.005c-2.724-.44-3.601-1.253-5.3-3.372 2.22-4.589 2.644-5.124 7.8-5.14ZM362.846 489.866l3.178-.013 3.517.002 3.68-.01c3.34-.008 6.682-.012 10.023-.012 2.786-.001 5.571-.005 8.357-.008 6.572-.009 13.144-.011 19.715-.01 6.786 0 13.57-.01 20.356-.026 5.819-.013 11.638-.018 17.457-.018 3.479 0 6.957-.002 10.435-.013 3.879-.011 7.758-.007 11.637 0 1.156-.007 2.313-.012 3.504-.018l3.195.013 2.781-.002C483 490 483 490 486 492v4c-3.14 1.833-5.423 2.25-9.041 2.254l-3.08.017-3.361-.012-3.554.01c-3.213.008-6.425.006-9.638 0-3.365-.005-6.73 0-10.095.002-5.652.004-11.303 0-16.955-.01a5841 5841 0 0 0-19.587.003c-5.61.01-11.219.01-16.828.006-3.349-.004-6.697-.004-10.046.003-3.734.005-7.469-.003-11.203-.014l-3.356.012-3.088-.017-2.674-.002c-2.79-.282-4.95-1.102-7.494-2.252.995-5.542 1.192-6.123 6.846-6.134Z"/>
  <path fill="#2D2A31" d="M29 102c4.152 3.888 7.344 8.072 10.563 12.75 1.052 1.517 2.106 3.034 3.16 4.55.806 1.164.806 1.164 1.63 2.35a420.552 420.552 0 0 0 4.956 6.893l1.62 2.233a438.845 438.845 0 0 0 3.061 4.162c6.55 9.085 8.629 17.037 8.26 28.187l-.055 3.188A537.02 537.02 0 0 1 62 174c-4.485-4.19-8.024-8.854-11.625-13.813l-1.847-2.54c-1.246-1.718-2.49-3.44-3.731-5.162a731.858 731.858 0 0 0-5.016-6.833C30.825 133.376 26.806 122.501 28 107c.3-1.673.62-3.343 1-5Z"/>
  <path fill="#F9D797" d="M242 112c11.761-.116 23.522-.205 35.284-.26 5.461-.025 10.923-.06 16.384-.117 5.271-.055 10.542-.084 15.814-.097 2.01-.01 4.02-.028 6.03-.055 2.819-.036 5.635-.04 8.453-.039l2.514-.054c5.862.052 8.397 1.449 12.521 5.622l-2 4c-11.63.116-23.261.205-34.893.26-5.4.025-10.801.06-16.202.117-5.213.055-10.426.084-15.64.097-1.987.01-3.975.028-5.963.055-2.787.036-5.572.04-8.36.039l-2.484.054c-5.833-.052-8.352-1.476-12.458-5.622l1-4Z"/>
  <path fill="#F5B339" d="M496 159c2.438.375 2.438.375 5 1 1.653 3.305 1.147 6.991 1.145 10.625l.01 2.705c.01 2.962.012 5.923.013 8.885l.01 6.158c.006 4.306.008 8.613.007 12.92 0 5.526.014 11.052.031 16.578.011 4.24.013 8.481.013 12.722 0 2.037.005 4.075.013 6.113.01 2.847.007 5.693 0 8.54.007.846.012 1.693.018 2.565-.021 3.913-.04 5.858-2.26 9.189-2.438-.375-2.438-.375-5-1-1.653-3.305-1.147-6.991-1.145-10.625l-.01-2.705c-.01-2.962-.012-5.923-.013-8.885l-.01-6.158c-.006-4.306-.008-8.613-.007-12.92 0-5.526-.014-11.052-.031-16.578-.011-4.24-.013-8.481-.013-12.722 0-2.037-.005-4.075-.013-6.113-.01-2.847-.007-5.693 0-8.54-.007-.846-.012-1.693-.018-2.565.021-3.913.04-5.858 2.26-9.189Z"/>
  <path fill="#F5B33A" d="M106 381c3.875 1.875 3.875 1.875 5 3 .106 2.845.147 5.666.145 8.511l.01 2.705c.01 2.967.012 5.934.013 8.901l.01 6.162c.006 4.313.008 8.626.007 12.938 0 5.534.014 11.068.031 16.602.011 4.245.013 8.49.013 12.735 0 2.04.005 4.08.013 6.121.01 2.852.007 5.703 0 8.555.007.848.012 1.696.018 2.57-.021 3.916-.038 5.866-2.26 9.2-4.875-.875-4.875-.875-6-2a229.624 229.624 0 0 1-.161-8.603l-.015-2.735c-.015-3-.022-5.998-.027-8.998l-.017-6.23c-.01-4.36-.017-8.719-.02-13.079-.006-5.594-.03-11.189-.058-16.783-.019-4.291-.024-8.582-.026-12.873-.003-2.063-.01-4.126-.024-6.19-.017-2.882-.015-5.764-.008-8.647l-.028-2.598c.041-5.872.041-5.872 1.907-8.007L106 381Z"/>
  <path fill="#F5B239" d="M497 381c3.875 1.875 3.875 1.875 5 3 .106 2.845.147 5.666.145 8.511l.01 2.705c.01 2.967.012 5.934.013 8.901l.01 6.162c.006 4.313.008 8.626.007 12.938 0 5.534.014 11.068.031 16.602.011 4.245.013 8.49.013 12.735 0 2.04.005 4.08.013 6.121.01 2.852.007 5.703 0 8.555.007.848.012 1.696.018 2.57-.021 3.916-.038 5.866-2.26 9.2-2.438-.375-2.438-.375-5-1-1.653-3.305-1.156-6.99-1.161-10.625l-.015-2.705c-.015-2.962-.022-5.923-.027-8.885l-.017-6.158c-.01-4.306-.017-8.613-.02-12.92-.006-5.526-.03-11.052-.058-16.578-.019-4.24-.024-8.481-.026-12.722-.003-2.037-.01-4.075-.024-6.113-.017-2.847-.015-5.693-.008-8.54l-.028-2.565c.041-5.797.041-5.797 1.907-7.929L497 381Z"/>
  <path fill="#F5D598" d="M22 97c2.41.233 3.722.78 5.62 2.288 1.747 2.168 1.685 3.174 1.532 5.923-.03.826-.062 1.652-.094 2.504l-.12 2.66c-.271 14.101 3.13 23.434 11.654 34.741a388.25 388.25 0 0 1 4.674 6.423c2.2 3.071 4.404 6.14 6.62 9.2l1.545 2.135c1.08 1.463 2.182 2.91 3.302 4.342l1.67 2.14 1.519 1.906C61 173 61 173 60.875 176L60 178l-4 1c-5.362-5.57-9.758-11.747-14.155-18.078-2.735-3.936-5.503-7.834-8.368-11.676l-1.76-2.373a469.471 469.471 0 0 0-3.352-4.456c-9.082-12.288-10.758-25.673-8.99-40.667C20 99 20 99 22 97Z"/>
  <path fill="#F5B237" d="M105 159c3.536.536 3.536.536 5 2 .106 2.911.147 5.799.145 8.71l.01 2.77c.01 3.036.012 6.073.013 9.11l.01 6.304c.006 4.41.008 8.822.007 13.233 0 5.664.014 11.328.031 16.992.011 4.342.013 8.683.013 13.025 0 2.089.005 4.178.013 6.267.01 2.916.007 5.832 0 8.749.007.87.012 1.74.018 2.637-.032 5.975-.032 5.975-2.26 8.203-3.536-.536-3.536-.536-5-2a235.535 235.535 0 0 1-.145-8.71l-.01-2.77c-.01-3.036-.012-6.073-.013-9.11l-.01-6.304c-.006-4.41-.008-8.822-.007-13.233 0-5.664-.014-11.328-.031-16.992-.011-4.342-.013-8.683-.013-13.025 0-2.089-.005-4.178-.013-6.267-.01-2.916-.007-5.832 0-8.749-.007-.87-.012-1.74-.018-2.637.032-5.975.032-5.975 2.26-8.203Z"/>
  <path fill="#F2A008" d="M44 35c3.816 1.546 5.97 3.888 8.688 6.938l1.326 1.485c3.623 4.087 7.072 8.307 10.502 12.557 2.95 3.587 5.993 7.084 9.046 10.583 1.645 1.897 3.287 3.795 4.928 5.695a892.284 892.284 0 0 0 4.12 4.71c.726.857 1.453 1.713 2.203 2.594l1.894 2.192C88.401 84.697 88.373 86.655 88 90l-2 3c-3.816-1.546-5.97-3.888-8.688-6.938l-1.326-1.485c-3.623-4.087-7.072-8.307-10.502-12.557-2.95-3.587-5.994-7.084-9.046-10.582a6375.743 6375.743 0 0 1-4.928-5.7 533.48 533.48 0 0 0-4.12-4.672c-5.85-6.814-5.85-6.814-6.015-11.066C42 37 42 37 44 35Z"/>
  <path fill="#F2A007" d="M398 35c3.207-.406 5.85-.697 8.704 1.033 1.9 1.639 3.662 3.364 5.421 5.154l2.095 2.06a767.66 767.66 0 0 1 4.846 4.827c2.812 2.818 5.668 5.59 8.526 8.361a1968.21 1968.21 0 0 1 8.02 7.843 1061.96 1061.96 0 0 0 4.038 3.936 737.436 737.436 0 0 1 5.702 5.614l1.774 1.706c1.595 1.604 1.595 1.604 3.874 4.466-.358 2.179-.358 2.179-1 4-3.15.524-4.945.724-8 0-3.605-2.601-6.501-5.796-9.5-9.063-1.612-1.701-3.227-3.4-4.844-5.097l-2.383-2.52c-2.608-2.662-5.362-5.07-8.197-7.486-4.216-3.724-8.12-7.776-12.076-11.772l-2.637-2.65A4216.007 4216.007 0 0 1 396 39l2-4Z"/>
  <path fill="#F9D798" d="M153 14c12.057-.07 24.113-.123 36.17-.155 5.598-.016 11.196-.037 16.794-.071 5.401-.033 10.802-.05 16.204-.059 2.062-.005 4.124-.016 6.186-.032 2.885-.022 5.77-.025 8.655-.024l2.591-.032c5.823.03 5.823.03 8.962 1.894L250 17l-1 3c-11.779.07-23.557.123-35.336.155-5.469.016-10.938.037-16.407.071-5.278.033-10.556.05-15.834.059-2.014.005-4.028.016-6.042.032-2.82.022-5.64.025-8.46.024l-2.524.032c-4.56-.024-7.775-.266-11.397-3.373v-3Z"/>
  <path fill="#F9D795" d="M4 20h2a163.513 163.513 0 0 1 5.25 7.313c5.25 7.597 10.666 15.05 16.204 22.44l1.71 2.298 1.514 2.02c3.126 4.561 3.55 7.6 3.447 13.179l-.055 3.828L34 74c-3.658-3.484-6.596-7.025-9.5-11.188a3314.48 3314.48 0 0 0-2.594-3.695l-1.398-1.993a527.651 527.651 0 0 0-4.977-6.866l-1.775-2.425c-1.151-1.57-2.306-3.138-3.465-4.703-4.302-5.893-6.58-9.964-6.416-17.443l.055-3.238L4 20Z"/>
  <path fill="#F9D796" d="M60 92h2c1.198 1.35 1.198 1.35 2.547 3.27l1.542 2.167 1.661 2.376c1.165 1.645 2.332 3.29 3.5 4.933l1.848 2.605a484.934 484.934 0 0 0 5.84 7.934l1.93 2.581c1.237 1.65 2.479 3.295 3.725 4.938l1.704 2.282 1.51 2.001c2.523 4.047 2.302 7.99 2.255 12.663l-.027 3.547L90 146c-3.28-3.08-5.801-6.377-8.375-10.063a466.952 466.952 0 0 0-9.32-12.87l-1.909-2.545a817.93 817.93 0 0 0-3.749-4.948c-4.522-6.037-6.96-10.734-6.772-18.449l.055-2.93L60 92Z"/>
  <path fill="#F9D695" d="M8 377h2c1.54 1.82 2.963 3.645 4.375 5.563.896 1.192 1.793 2.383 2.691 3.574l1.438 1.907c3.021 3.95 6.164 7.804 9.296 11.665 10.362 12.847 10.362 12.847 10.262 20.478l-.027 2.731L38 425c-4.46-1.56-6.788-5.146-9.563-8.75l-1.573-2.011a1361.254 1361.254 0 0 1-3.243-4.162 499.256 499.256 0 0 0-4.746-5.972l-2.938-3.668c-.452-.558-.905-1.116-1.37-1.692-4.248-5.352-7.009-9.666-6.755-16.62l.083-2.93L8 377Z"/>
  <path fill="#F9D796" d="M60 435c3.696 3.558 6.936 7.305 10.063 11.375 3.054 3.946 6.123 7.873 9.285 11.734l1.658 2.034a616.757 616.757 0 0 0 3.197 3.882c4.169 5.123 4.937 8.241 4.86 14.725l-.028 2.984L89 484c-5.439-5.314-10.213-11.108-15-17l-1.483-1.824a974.552 974.552 0 0 1-4.454-5.551l-1.396-1.728c-4.466-5.652-7.098-9.964-6.855-17.272l.083-3.21L60 435Z"/>
  <path fill="#F8CF81" d="M5 171c2.594 2.523 3.224 4.512 3.36 8.012.01 1.66.002 3.32-.02 4.98l.002 2.75c-.002 2.997-.026 5.995-.049 8.992a4130.683 4130.683 0 0 1-.087 22.652c-.03 5.583-.044 11.167-.06 16.75C8.114 246.092 8.063 257.047 8 268l-3-1c-1.528-4.084-1.14-8.49-1.13-12.792l-.005-2.686c-.004-2.928-.001-5.856.002-8.784l-.003-6.096c-.001-4.256.001-8.512.006-12.768.005-5.468.002-10.936-.004-16.404-.004-4.194-.002-8.388 0-12.582 0-2.017 0-4.035-.002-6.052-.003-2.81.001-5.622.007-8.432l-.007-2.549c.022-5.74.022-5.74 1.136-6.855Z"/>
  <path fill="#F9D899" d="M85 260h2c1.692 3.383 1.129 7.227 1.114 10.948v2.808c0 3.074-.009 6.147-.016 9.22l-.005 6.382c-.003 5.606-.013 11.212-.024 16.818-.01 5.717-.015 11.435-.02 17.152-.01 11.224-.028 22.448-.049 33.672-2-1-2-1-3-4a252.41 252.41 0 0 1-.114-8.878v-2.75c0-3.003.009-6.006.016-9.009l.005-6.242c.003-5.48.013-10.959.024-16.438.01-5.59.015-11.18.02-16.77.01-10.972.028-21.942.049-32.913Z"/>
</svg>
