<svg xmlns="http://www.w3.org/2000/svg" viewBox="0 0 512 512">
  <path fill="#F12233" d="M165.653-.631c2.192-.005 4.384-.013 6.576-.022 5.93-.018 11.86-.005 17.79.014 6.216.017 12.434.008 18.651.003 11.106-.005 22.211.015 33.317.044 10.053.027 20.106.03 30.16.016 12.948-.019 25.896-.017 38.844.002 4.935.007 9.87.006 14.804-.002 5.814-.007 11.627.005 17.441.032 2.13.007 4.259.007 6.388 0C370.296-.606 370.296-.606 378 4c.89.53 1.781 1.06 2.7 1.605C390.226 13.187 395.67 20.902 398 33c.86 11.949-.754 22.938-3.402 34.555l-1.083 4.941c-4.478 20.342-9.418 40.581-14.34 60.819a3802.101 3802.101 0 0 0-3.042 12.62c-.38 1.577-.763 3.153-1.15 4.729-.532 2.167-1.053 4.337-1.571 6.508l-.903 3.717c-.475 2.905-.694 4.451.491 7.111a81.554 81.554 0 0 0 6.438 4.688c5.48 3.752 10.483 7.709 15.347 12.25 1.96 1.824 3.97 3.538 6.028 5.25C421.113 207.996 435.56 230.795 447 255l1.586 3.313c11.627 25.59 16.64 53.41 16.664 81.375l.002 2.2c-.078 52.844-20.224 103.35-56.793 141.585a440.814 440.814 0 0 0-2.938 3.105c-23.643 25.157-23.643 25.157-34.445 25.573-1.752.017-3.505.029-5.258.037l-2.92.024c-3.25.025-6.5.043-9.75.06l-6.968.05c-21.237.144-42.475.22-63.713.278l-8.533.025-2.143.006c-11.43.034-22.86.107-34.289.195-11.745.09-23.49.14-35.236.156-6.59.01-13.18.037-19.77.106-6.21.064-12.416.08-18.626.061-2.27.002-4.542.02-6.813.057-14.44.222-23.377-1.15-34.057-11.206l-2.062-1.726c-1.553-1.302-3.031-2.69-4.5-4.086l-1.582-1.501A761.911 761.911 0 0 1 110 490c-.545-.52-1.09-1.04-1.653-1.575C100.07 480.537 92.73 472.245 86 463l-1.252-1.708c-31.226-43.14-44.24-99.072-36.156-151.671.435-2.548.91-5.084 1.408-7.621l.504-2.604c3.816-19.038 10.216-37.408 19.466-54.493 1.056-1.95 2.083-3.914 3.112-5.88C88.573 209.961 112.712 185.193 140 167c-.6-5.394-1.49-10.604-2.762-15.884l-.533-2.256c-.38-1.607-.762-3.214-1.146-4.82-.615-2.575-1.224-5.15-1.833-7.726-1.3-5.502-2.606-11.002-3.913-16.501-9.753-41.025-9.753-41.025-13.387-58.395l-.737-3.488c-3.023-14.771-3.083-28.478 4.999-41.805C132.179.439 147.767-.738 165.653-.631ZM192.438 65.5C191.1 67.192 191.1 67.192 190 69l-1.215 1.719c-2.392 6.949 1.615 17.07 3.156 23.969l.87 3.934c.758 3.426 1.52 6.852 2.284 10.277.78 3.506 1.556 7.013 2.333 10.519 1.52 6.862 3.044 13.722 4.572 20.582 4.318-.513 8.558-1.046 12.809-1.973 27.74-5.536 60.01-6.087 87.5 1.075 3.706 1.056 3.706 1.056 7.691.898 1.857-8.09 3.7-16.183 5.528-24.28.849-3.76 1.702-7.519 2.566-11.275.834-3.629 1.656-7.26 2.47-10.893.312-1.383.628-2.764.949-4.145.45-1.94.883-3.885 1.315-5.83l.76-3.343c.58-4.549.41-8.595-2.006-12.562-5.395-5.86-10.393-9.362-18.566-9.772-2.469-.051-4.936-.07-7.405-.077l-2.845-.02c-3.102-.02-6.203-.031-9.305-.041l-3.22-.013c-5.629-.02-11.256-.035-16.884-.044-5.793-.011-11.587-.046-17.38-.085-4.471-.027-8.943-.035-13.414-.038a993.01 993.01 0 0 1-6.404-.035c-18.4-.78-18.4-.78-33.721 7.953Z"/>
  <path fill="#B41A26" d="M165.653-.631c2.192-.005 4.384-.013 6.576-.022 5.93-.018 11.86-.005 17.79.014 6.216.017 12.434.008 18.651.003 11.106-.005 22.211.015 33.317.044 10.053.027 20.106.03 30.16.016 12.948-.019 25.896-.017 38.844.002 4.935.007 9.87.006 14.804-.002 5.814-.007 11.627.005 17.441.032 2.13.007 4.259.007 6.388 0C370.296-.606 370.296-.606 378 4c.89.53 1.781 1.06 2.7 1.605C390.226 13.187 395.67 20.902 398 33c.86 11.949-.754 22.938-3.402 34.555l-1.083 4.941c-4.478 20.342-9.418 40.581-14.34 60.819a3802.101 3802.101 0 0 0-3.042 12.62c-.38 1.577-.763 3.153-1.15 4.729-.532 2.167-1.053 4.337-1.571 6.508l-.903 3.717c-.475 2.905-.694 4.451.491 7.111a81.554 81.554 0 0 0 6.438 4.688c5.48 3.752 10.483 7.709 15.347 12.25 1.96 1.824 3.97 3.538 6.028 5.25C421.113 207.996 435.56 230.795 447 255l1.586 3.313c11.627 25.59 16.64 53.41 16.664 81.375l.002 2.2c-.078 52.844-20.224 103.35-56.793 141.585a440.814 440.814 0 0 0-2.938 3.105c-23.5 25.005-23.5 25.005-32.594 25.545l-2.61-.003-2.99.004-3.294-.01h-3.46c-3.787 0-7.574-.009-11.362-.016l-7.861-.005c-6.201-.003-12.403-.011-18.604-.021-7.751-.012-15.502-.018-23.254-.023-13.83-.01-27.661-.03-41.492-.049v-70l24-3c26.716-7.923 50.416-23.17 64.16-48.103 8.403-16.28 13.248-32.227 13.153-50.647l-.018-3.468c-.367-25.637-10.33-47.795-27.295-66.782l-1.629-1.879C311.258 247.475 284.917 241.365 258 238V134c20.872 0 20.872 0 29.375 1.313l2.792.403c6.731 1.013 13.301 2.341 19.833 4.284l.328-3.215c.736-5.87 2.113-11.59 3.43-17.351.548-2.449 1.097-4.897 1.644-7.346.862-3.835 1.727-7.669 2.601-11.5.846-3.716 1.677-7.435 2.505-11.154l.801-3.46c2.137-9.24 2.137-9.24-.508-18.083-5.047-5.564-10.134-8.607-17.785-8.99a408.89 408.89 0 0 0-7.405-.078l-2.845-.02c-3.102-.02-6.203-.031-9.305-.041l-3.22-.013c-5.629-.02-11.256-.035-16.884-.044-5.793-.011-11.587-.046-17.38-.085-4.471-.027-8.943-.035-13.414-.038a993.01 993.01 0 0 1-6.404-.035c-16.907-.787-16.907-.787-31.838 5.9C192.73 66.154 192.73 66.154 191 69l-1.375 1.875c-1.006 3.421-.18 6.677.375 10.125.19 1.589.371 3.179.543 4.77l.262 2.413L191 90l-4.59 2.203a3483336036.585 3483336036.585 0 0 1-9.73 4.67c-5.866 2.814-11.73 5.632-17.59 8.455l-3.35 1.612a6745.7 6745.7 0 0 0-6.326 3.05c-2.8 1.346-5.606 2.68-8.414 4.01l-2.61 1.266-2.421 1.14-2.112 1.01C132 118 132 118 129 117c-.84-2.21-.84-2.21-1.502-5.171l-.769-3.35-.795-3.659-.848-3.75a1988.13 1988.13 0 0 1-2.202-9.92c-.589-2.67-1.19-5.336-1.79-8.003-11.122-49.352-11.122-49.352-.406-67.022C132.179.439 147.767-.738 165.653-.631Z"/>
  <path fill="#F6707C" d="M324.273 261.695C343.17 278.092 357.753 301.655 360 327c1.82 32.727-6.484 59.61-28.148 84.465-19.064 20.162-45.686 30.123-72.994 30.923-25.217.372-49.24-5.913-68.858-22.388l-2.602-2.184C168.63 401.458 155.468 378.862 152 354c-.264-4.13-.28-8.238-.25-12.375l-.023-3.172c.067-27.13 10.995-51.946 29.71-71.328 38.923-37.282 101.368-40.141 142.836-5.43Z"/>
  <path fill="#1F1E25" d="M165.653-.631c2.192-.005 4.384-.013 6.576-.022 5.93-.018 11.86-.005 17.79.014 6.216.017 12.434.008 18.651.003 11.106-.005 22.211.015 33.317.044 10.053.027 20.106.03 30.16.016 12.948-.019 25.896-.017 38.844.002 4.935.007 9.87.006 14.804-.002 5.814-.007 11.627.005 17.441.032 2.13.007 4.259.007 6.388 0C370.296-.606 370.296-.606 378 4c.89.53 1.781 1.06 2.7 1.605C390.228 13.188 395.665 20.902 398 33c.899 12.173-.86 23.356-3.562 35.188-.363 1.646-.724 3.294-1.084 4.941A1721.396 1721.396 0 0 1 390 88l-.539 2.36A2618.187 2618.187 0 0 1 383 118c-5.127-.622-9.338-2.949-13.895-5.227l-2.62-1.29a2872.345 2872.345 0 0 1-8.297-4.108C345.908 101.289 333.623 95.345 321 90c.947-7.683.947-7.683 1.422-10.54.798-5.07.653-8.095-2.422-12.46-6.183-6.33-13.494-8.312-22.217-8.418l-2.626.014-2.847-.02c-3.08-.019-6.16-.015-9.24-.01l-6.474-.015c-4.513-.01-9.027-.007-13.54.003-5.763.011-11.524-.009-17.286-.038a2468.55 2468.55 0 0 0-13.363-.012c-2.123 0-4.247-.006-6.37-.019-16.845-.72-16.845-.72-31.716 5.962C192.73 66.153 192.73 66.153 191 69l-1.375 1.875c-1.006 3.421-.18 6.677.375 10.125.19 1.589.371 3.179.543 4.77l.262 2.413L191 90l-4.59 2.203a3483336036.585 3483336036.585 0 0 1-9.73 4.67c-5.866 2.814-11.73 5.632-17.59 8.455l-3.35 1.612a6745.7 6745.7 0 0 0-6.326 3.05c-2.8 1.346-5.606 2.68-8.414 4.01l-2.61 1.266-2.421 1.14-2.112 1.01C132 118 132 118 129 117c-.84-2.21-.84-2.21-1.502-5.171l-.769-3.35-.795-3.659-.848-3.75a1988.13 1988.13 0 0 1-2.202-9.92c-.589-2.67-1.19-5.336-1.79-8.003-11.122-49.352-11.122-49.352-.406-67.022C132.179.439 147.767-.738 165.653-.631Z"/>
  <path fill="#F44D5B" d="M258 238c27.962 0 52.235 9.677 72.293 29.23 20.842 21.324 30.26 46.578 30.059 76.208-.562 26.864-12.274 50.865-30.602 70.25C310.127 432.418 284.968 442 258 442V238Z"/>
  <path fill="#292730" d="m155.53-.568 3.315-.002c3.577.004 7.153.042 10.73.082 2.495.01 4.99.016 7.485.021 6.539.02 13.076.068 19.614.124 7.86.063 15.721.083 23.582.112C232.17-.183 244.085-.087 256 0v58c-23.813.25-23.813.25-31.261.298-1.982.03-3.964.06-5.946.093l-3.036.003c-7.387.147-15.611 1.118-21.477 6.053-1.546 1.716-1.546 1.716-3.28 4.553l-1.375 1.875c-1.006 3.421-.18 6.677.375 10.125.19 1.589.371 3.179.543 4.77l.262 2.413L191 90l-4.59 2.203-3.031 1.455a49604.29 49604.29 0 0 1-6.7 3.215 12386.405 12386.405 0 0 0-20.939 10.067c-2.11 1.016-4.218 2.032-6.326 3.05-2.8 1.346-5.606 2.68-8.414 4.01l-2.61 1.266-2.421 1.14-2.112 1.01C132 118 132 118 129 117c-.84-2.21-.84-2.21-1.502-5.171l-.769-3.35-.795-3.659-.848-3.75a1988.13 1988.13 0 0 1-2.202-9.92c-.589-2.67-1.19-5.336-1.79-8.003-11.122-49.352-11.122-49.352-.407-67.022C129.08 4.67 141.614-.815 155.53-.568Z"/>
  <path fill="#F22334" d="M347.5 341.75c2.5.25 2.5.25 4.5 2.25 2.276 19.745-5.276 39.417-17 55a147.542 147.542 0 0 1-9 10l-1.855 1.895c-14.287 13.494-35.415 21.106-54.797 21.468C267 432 267 432 265.168 430.645 264 429 264 429 264.25 426.375 265 424 265 424 266 423c1.822-.214 3.645-.422 5.471-.594 23.202-2.222 40.9-11.673 55.904-29.344 4.042-5.307 6.985-10.95 9.625-17.062l1.188-2.727c2.831-7.391 3.57-14.758 4.13-22.595l.19-2.53.145-2.275c.577-3.115 1.791-3.817 4.847-4.123Z"/>
  <path fill="#C02231" d="m121 181 2 1-23 23-2-1a269.034 269.034 0 0 1 23-23Z"/>
</svg>
