<svg xmlns="http://www.w3.org/2000/svg" viewBox="0 0 512 512">
  <path fill="#27262E" d="m255.625-.313 3.085.007c14.609.05 28.94.3 43.29 3.306l2.954.602C353.336 13.722 397.324 35.64 433 70l1.998 1.916C444.486 81.06 453.226 90.357 461 101l2.574 3.453c6.038 8.191 11.397 16.705 16.426 25.547l1.104 1.915c21.606 37.748 31.373 80.514 31.209 123.71l-.007 3.085c-.05 14.609-.3 28.94-3.306 43.29l-.602 2.954C498.278 353.336 476.36 397.324 442 433l-1.916 1.998C430.94 444.486 421.643 453.226 411 461l-3.453 2.574c-8.19 6.038-16.692 11.42-25.547 16.426l-2.143 1.219c-23.135 13.025-48.307 21.774-74.295 27.094l-2.178.446c-14.676 2.79-29.2 3.59-44.111 3.557-2.94-.003-5.878.02-8.818.045-13.373.045-26.27-1.16-39.455-3.361l-3.446-.57C164.287 500.658 123.237 480.67 90 452l-2.258-1.922C74.237 438.267 61.566 425.516 51 411l-2.57-3.45C42.39 399.36 37.006 390.857 32 382l-1.219-2.143C17.756 356.722 9.007 331.55 3.688 305.562l-.447-2.178c-2.974-15.646-3.614-31.12-3.554-47.009l.007-3.085c.05-14.609.3-28.94 3.306-43.29l.602-2.954C13.722 158.664 35.64 114.676 70 79l1.916-1.998C81.06 67.514 90.357 58.774 101 51l3.453-2.574C112.643 42.388 121.145 37.006 130 32l2.143-1.219c23.135-13.025 48.307-21.774 74.294-27.093l2.179-.447c15.646-2.974 31.12-3.614 47.009-3.554Z"/>
  <path fill="#151419" d="M35 256h44l.25 10.25c.282 13.926.282 13.926 6.75 25.75 2.51.065 2.51.065 5-1 5.589-6.624 5.35-16.84 5.625-25.063L97 256h30c.375 10 .375 10 .478 13.102.33 7.694 1.183 15.31 5.522 21.898 2.584.97 2.584.97 5 1 6.021-7.4 6.47-16.42 6.688-25.625L145 256h30c.313 10.375.313 10.375.388 13.58.312 8.194 1.311 15.905 6.612 22.42 2.385.128 2.385.128 5-1 5.608-7.398 5.147-17.135 5.563-26l.437-9h30c.375 10 .375 10 .478 13.102.33 7.694 1.183 15.31 5.522 21.898 2.584.97 2.584.97 5 1 6.231-7.648 6.172-16.431 6.563-25.875L241 256h30c.375 10 .375 10 .478 13.102.33 7.694 1.183 15.31 5.522 21.898 2.584.97 2.584.97 5 1 6.36-7.516 6.127-17.566 6.563-26.938L289 256h30l.25 9.688c.334 14.211.334 14.211 6.75 26.312 2.492.389 2.492.389 5-1 3.45-5.666 5.049-11.629 5.316-18.203l.116-2.677.13-3.37L337 256h30c.375 10 .375 10 .478 13.102.33 7.694 1.183 15.31 5.522 21.898 2.584.97 2.584.97 5 1 6.021-7.4 6.47-16.42 6.688-25.625L385 256h30l.375 8.875c.426 13.713.426 13.713 5.625 26.125 2.584.97 2.584.97 5 1 8.114-9.589 6.398-24.565 7-36h44c0 25.627 0 25.627-1.188 34l-.403 2.985C470.451 327.718 458.378 358.332 434 384l-2.275 2.417C429 389 429 389 426.147 390.705c-4.613 3.008-7.543 5.623-8.766 11.033-.96 8.27-.72 16.578-.568 24.887.006 2.556.008 5.112.005 7.668.004 6.237.069 12.471.182 18.707l3 1c-33.982 26.977-71.781 45.581-114.438 54.313l-2.178.446c-14.676 2.79-29.2 3.59-44.111 3.557-2.94-.003-5.878.02-8.818.045-13.373.045-26.27-1.16-39.455-3.361l-3.446-.57C164.87 500.763 125.551 481.147 92 454l2-1c.254-7.686.429-15.37.55-23.06.05-2.612.118-5.226.204-7.838.122-3.764.179-7.524.223-11.29l.156-3.52c.003-4.877-.002-8.01-3.313-11.764-2.524-2.024-5.098-3.784-7.82-5.528-32.368-27.296-44.614-69.555-48.688-110.125C34.89 271.927 35 263.959 35 256Z"/>
  <path d="m255.625-.313 3.085.007c14.609.05 28.94.3 43.29 3.306l2.954.602C348.411 12.692 386.57 31.186 421 59l-2 1-2-1v54l-11-6c-21.64-11.551-41.926-16.467-66.387-16.404l-6.028-.02c-5.416-.019-10.831-.018-16.247-.012-4.542.003-9.084-.003-13.626-.009-10.728-.014-21.456-.012-32.185-.001-11.018.011-22.036-.003-33.054-.03-9.504-.022-19.008-.028-28.511-.022-5.657.003-11.314 0-16.97-.017-5.327-.015-10.653-.011-15.98.008-1.937.003-3.875 0-5.813-.01-24.726-.125-52.116 4.841-72 20.76C97 113 97 113 95 113l-1-54-2-1c33.982-26.977 71.781-45.581 114.438-54.313l2.178-.446c15.646-2.974 31.12-3.614 47.009-3.554Z"/>
  <path fill="#0A0A0C" d="M96 400c4.073 1.571 7.63 3.497 11.375 5.75 16.038 9.343 34.483 15.411 53.142 15.39l2.557.01c2.821.008 5.642.01 8.463.011l6.077.015c5.5.013 11.001.02 16.502.024l10.323.012c10.78.013 21.56.023 32.339.027 12.418.004 24.836.022 37.254.05 9.614.023 19.228.033 28.842.034 5.734.001 11.468.007 17.203.025 5.401.016 10.803.018 16.205.01 1.972-.001 3.944.003 5.917.013 14.522.069 27.825-1.296 41.676-5.996l2.233-.75c9.12-3.21 18.489-7.56 26.244-13.395C414 400 414 400 416 400c.423 7.808.758 15.617 1.031 23.431.098 2.658.227 5.308.372 7.964.204 3.825.335 7.647.452 11.476l.239 3.571c.096 5.17.025 8.274-3.456 12.27-2.786 2.305-5.6 4.33-8.638 6.288-1.388.976-2.775 1.954-4.16 2.934a339.735 339.735 0 0 1-3.902 2.503l-2.173 1.385C366.902 489.999 335.597 502.724 302 509l-2.44.492c-14.42 2.82-28.984 2.82-43.623 2.883l-2.931.024c-14.236.09-27.963-1.068-42.006-3.399l-3.447-.57C169.053 501.507 131.971 484.86 101 461l-3.204-1.874c-2.207-1.87-2.746-2.855-3.28-5.736-.116-3.395-.033-6.735.117-10.128l.093-3.745c.087-3.275.2-6.547.326-9.82.122-3.344.209-6.69.3-10.035.184-6.555.403-13.109.648-19.662ZM256 0v90l-21.828.078c-4.603.025-9.206.052-13.809.082-7.282.048-14.565.092-21.848.111-5.881.015-11.762.05-17.643.097-2.227.015-4.455.023-6.682.024-25.846.02-54.081 4.111-74.99 20.85C97 113 97 113 95 113l-1-54-2-1c36.536-29.004 77.787-48.41 124-56l2.14-.355C230.876-.375 242.939 0 256 0Z"/>
  <path d="M416 400c.423 7.808.758 15.617 1.031 23.431.098 2.658.227 5.308.372 7.964.204 3.825.335 7.647.452 11.476l.239 3.571c.096 5.17.025 8.274-3.456 12.27-2.786 2.305-5.6 4.33-8.638 6.288-1.388.976-2.775 1.954-4.16 2.934a339.735 339.735 0 0 1-3.902 2.503l-2.173 1.385c-32.212 20.285-67.465 33.586-105.202 38.99l-2.484.377c-10.615 1.363-21.399.915-32.079.811-.023-11.587-.04-23.174-.052-34.76-.005-5.38-.012-10.76-.023-16.14-.011-5.187-.017-10.374-.02-15.56-.002-1.985-.005-3.968-.01-5.952-.008-2.768-.009-5.536-.009-8.305l-.01-2.51c.01-5.659.01-5.659 1.124-6.773a273.83 273.83 0 0 1 9.33-.158l2.972-.015c2.14-.01 4.28-.02 6.42-.026 3.399-.012 6.797-.031 10.195-.053 9.667-.062 19.333-.116 29-.15a4522.13 4522.13 0 0 0 17.724-.1c2.243-.014 4.486-.023 6.728-.026 12.243-.02 23.744-.343 35.631-3.472.88-.231 1.76-.463 2.668-.7a110.759 110.759 0 0 0 6.207-1.925l2.233-.75c9.12-3.21 18.489-7.56 26.244-13.395C414 400 414 400 416 400Z"/>
  <path fill="#515057" d="M86 219c3.34.18 4.733.748 7.188 3.063 4.014 6.505 4.12 13.493 4.113 20.921l.013 2.84c.005 1.973.006 3.946.002 5.92-.003 2.984.02 5.967.045 8.951.085 24.23.085 24.23-5.309 30.609C90 293 90 293 87.437 293c-3.543-1.454-4.908-3.744-6.373-7.224-1.843-6.062-2.495-11.523-2.427-17.842l-.002-2.785c.003-1.927.012-3.854.029-5.78.023-2.928.02-5.854.014-8.781.005-1.885.012-3.77.021-5.654l-.003-2.615c.1-8.617.93-16.944 7.304-23.319ZM184.5 218.938c3.393 1.441 4.563 2.923 6.5 6.062 1.832 5.985 2.295 11.384 2.266 17.617l.005 2.719c.002 1.887-.002 3.775-.01 5.663-.01 2.86 0 5.722.012 8.583 0 1.845-.003 3.69-.007 5.535l.012 2.552c-.068 8.75-.779 18.832-7.278 25.331-2.438-.125-2.438-.125-5-1-5.97-6.78-6.457-15.832-6.398-24.469l-.01-2.912c-.001-2.017.004-4.033.017-6.05.016-3.061 0-6.121-.02-9.182.003-1.973.007-3.946.013-5.918l-.019-2.732c.079-7.228 1.08-14.387 5.292-20.424C182 219 182 219 184.5 218.938Z"/>
  <path fill="#7A797E" d="M232.5 218.938c3.313 1.407 4.578 3.042 6.5 6.062.886 3.465 1.138 6.738 1.177 10.306l.039 3.136.022 3.359.025 3.486c.014 2.431.024 4.863.032 7.295.012 2.482.032 4.963.062 7.445.042 3.591.059 7.182.069 10.774l.053 3.34c-.021 7.518-.934 13.314-6.479 18.859-3.076-.158-4.529-.511-6.688-2.75-4.295-7.363-4.476-14.8-4.515-23.11l-.017-2.861c-.01-1.994-.016-3.988-.02-5.981-.01-3.024-.041-6.048-.072-9.071-.007-1.946-.012-3.891-.016-5.836l-.038-2.703c.026-7.224 1.033-14.344 5.241-20.375C230 219 230 219 232.5 218.938ZM136.5 218.938c3.313 1.407 4.578 3.042 6.5 6.062.886 3.465 1.138 6.738 1.177 10.306l.039 3.136.022 3.359.025 3.486c.014 2.431.024 4.863.032 7.295.012 2.482.032 4.963.062 7.445.042 3.591.059 7.182.069 10.774l.053 3.34c-.021 7.518-.934 13.314-6.479 18.859-3.076-.158-4.529-.511-6.688-2.75-4.295-7.363-4.476-14.8-4.515-23.11l-.017-2.861c-.01-1.994-.016-3.988-.02-5.981-.01-3.024-.041-6.048-.073-9.071l-.015-5.836-.038-2.703c.026-7.224 1.033-14.344 5.241-20.375C134 219 134 219 136.5 218.938Z"/>
  <path fill="#7B797E" d="M376.563 219.063c3.641 1.4 4.907 2.752 6.498 6.309 1.339 5.172 1.264 10.169 1.275 15.491l.02 3.475c.01 2.421.015 4.843.015 7.264.004 3.687.04 7.373.078 11.06.006 2.359.01 4.718.012 7.076l.043 3.316c-.044 7.493-.997 14.439-6.504 19.946-3.076-.158-4.529-.511-6.688-2.75-4.295-7.363-4.476-14.8-4.515-23.11l-.017-2.861c-.01-1.994-.016-3.988-.02-5.981-.01-3.024-.041-6.048-.072-9.071-.007-1.946-.012-3.891-.016-5.836l-.038-2.703c.026-7.224 1.033-14.344 5.241-20.375C374 219 374 219 376.563 219.063Z"/>
  <path fill="#7B7A7F" d="M424.563 219.063c3.641 1.4 4.907 2.752 6.498 6.309 1.339 5.172 1.264 10.169 1.275 15.491l.02 3.475c.01 2.421.015 4.843.015 7.264.004 3.687.04 7.373.078 11.06.006 2.359.01 4.718.012 7.076l.043 3.316c-.044 7.493-.997 14.439-6.504 19.946-3.076-.158-4.529-.511-6.688-2.75-4.52-7.75-4.471-16.124-4.515-24.867l-.017-2.719c-.01-1.887-.016-3.775-.02-5.663-.01-2.861-.041-5.722-.072-8.583-.007-1.845-.012-3.69-.016-5.535l-.038-2.552c.027-7.084 1.121-14.114 5.241-20.018C422 219 422 219 424.563 219.063Z"/>
  <path fill="#7A797E" d="M280.563 219.063c2.7 1.038 3.782 1.573 5.437 3.937 2.292 6.23 2.322 12.152 2.336 18.742l.02 3.403c.01 2.369.015 4.737.015 7.105.004 3.606.04 7.21.078 10.816.006 2.309.01 4.618.012 6.926l.043 3.24C288.46 280.655 287.45 287.55 282 293c-3.076-.158-4.529-.511-6.688-2.75-4.295-7.363-4.476-14.8-4.515-23.11l-.017-2.861c-.01-1.994-.016-3.988-.02-5.981-.01-3.024-.041-6.048-.072-9.071-.007-1.946-.012-3.891-.016-5.836l-.038-2.703c.026-7.224 1.033-14.344 5.241-20.375C278 219 278 219 280.563 219.063Z"/>
  <path fill="#535259" d="M328.438 219c3.402 1.328 4.615 2.94 6.562 6 .874 3.43 1.138 6.667 1.177 10.198l.039 3.066.022 3.283.025 3.411c.014 2.38.024 4.761.032 7.142.012 2.426.032 4.853.062 7.279.042 3.514.059 7.028.069 10.543l.053 3.258c-.021 7.452-1.006 14.347-6.479 19.82-3.035-.156-4.52-.52-6.688-2.688-3.738-6.586-3.619-12.865-3.613-20.246l-.013-3.488c-.005-2.43-.006-4.86-.002-7.29.003-3.709-.02-7.417-.045-11.126-.003-2.365-.003-4.73-.002-7.096l-.028-3.346c.042-6.985.743-11.87 4.766-17.72 1.625-1 1.625-1 4.063-1Z"/>
  <path fill="#7A797E" d="M184 220v72c-4-1-4-1-5.23-2.672l-.958-2.078-.98-2.047c-2.127-5.633-2.008-11.241-2.035-17.183l-.017-2.934c-.01-2.047-.016-4.093-.02-6.14-.01-3.105-.04-6.21-.072-9.315-.007-1.996-.012-3.991-.016-5.986l-.038-2.78c.023-6.652.489-14.245 4.783-19.648C181 220 181 220 184 220Z"/>
  <path fill="#7B7A7F" d="M85 220h3v72c-4-1-4-1-5.23-2.926l-.957-2.387-.981-2.363c-1.287-3.595-1.957-6.758-1.977-10.583l-.02-2.52-.003-2.701-.01-2.81c-.005-1.964-.007-3.926-.007-5.889-.002-2.98-.02-5.96-.04-8.94-.003-1.912-.005-3.824-.005-5.736l-.022-2.672c.03-8.266.762-15.985 6.252-22.473Z"/>
  <path fill="#535259" d="M230 219c3.448.287 4.762.762 7.25 3.25 2.672 4.199 2.874 8.159 2.927 13.056l.039 3.136.022 3.359.025 3.486c.014 2.431.024 4.863.032 7.295.012 2.482.032 4.963.062 7.445.042 3.591.059 7.182.069 10.774l.053 3.34c-.021 7.518-.934 13.314-6.479 18.859-2.125-.375-2.125-.375-4-1h2v-72l-2-1ZM134 219c3.448.287 4.762.762 7.25 3.25 2.672 4.199 2.874 8.159 2.927 13.056l.039 3.136.022 3.359.025 3.486c.014 2.431.024 4.863.032 7.295.012 2.482.032 4.963.062 7.445.042 3.591.059 7.182.069 10.774l.053 3.34c-.021 7.518-.934 13.314-6.479 18.859-2.125-.375-2.125-.375-4-1h2v-72l-2-1ZM422 219c2.595.35 4.526.666 6.688 2.188 4.224 5.833 3.634 12.807 3.648 19.675l.02 3.475c.01 2.421.015 4.843.015 7.264.004 3.687.04 7.373.078 11.06.006 2.359.01 4.718.012 7.076l.043 3.316c-.044 7.493-.997 14.439-6.504 19.946-2.125-.375-2.125-.375-4-1h2v-72l-2-1ZM374 219c2.595.35 4.526.666 6.688 2.188 4.224 5.833 3.634 12.807 3.648 19.675l.02 3.475c.01 2.421.015 4.843.015 7.264.004 3.687.04 7.373.078 11.06.006 2.359.01 4.718.012 7.076l.043 3.316c-.044 7.493-.997 14.439-6.504 19.946-2.125-.375-2.125-.375-4-1h2v-72l-2-1ZM278 219c2.56.346 4.52.68 6.688 2.125 4.21 6.016 3.633 13.603 3.648 20.617l.02 3.403c.01 2.369.015 4.737.015 7.105.004 3.606.04 7.21.078 10.816.006 2.309.01 4.618.012 6.926l.043 3.24C288.46 280.655 287.45 287.55 282 293c-2.125-.375-2.125-.375-4-1h2v-72l-2-1Z"/>
  <path fill="#7E7D82" d="M325 220h3v72c-4-1-4-1-5.248-2.637-2.958-6.587-3.322-12.429-3.248-19.59l-.005-3.475c.002-2.413.014-4.825.034-7.236.03-3.683.021-7.364.008-11.046.006-2.352.015-4.704.025-7.055l-.008-3.318c.083-6.82.377-12.578 5.442-17.643Z"/>
</svg>
