<svg xmlns="http://www.w3.org/2000/svg" viewBox="0 0 512 512">
  <path fill="#A6A3A4" d="m290 3 2.36.618C331.503 14.014 360.156 36.322 381 71c12.084 20.95 19.218 45.116 19.12 69.371l.003 2.4c.001 2.625-.004 5.25-.01 7.876l.001 5.679c0 5.119-.006 10.238-.013 15.357-.006 5.357-.006 10.714-.008 16.071-.003 10.136-.01 20.272-.021 30.408-.011 11.543-.017 23.085-.022 34.628-.01 23.737-.028 47.473-.05 71.21l3.324-.105c1.455-.029 2.91-.056 4.363-.082l2.186-.077c4.597-.063 7.481.412 11.127 3.264 1.735 2.644 2 3.785 2 7h5v8l-5 1v4l5 1v8h-5v127l5 1v8h-5v4l5 1c.098 6.152.098 6.152 0 8-1 1-1 1-3.563 1.063L422 506l-.875 1.875C420 510 420 510 418 512c-2.188.267-2.188.267-4.937.29l-3.115.04-3.378.006-3.46.02c-2.42.01-4.839.015-7.258.015-3.705.004-7.409.04-11.114.078-2.347.006-4.695.01-7.043.012l-3.365.043-3.134-.018-2.754.008c-3.206-.649-4.427-1.975-6.442-4.494v-2h-5v-10h4v-4h-4v-9h4V356h-4v-9h4v-4h-4v-9h4l.25-2.25c.9-3.297 2.174-4.564 4.75-6.75 5.375-2.687 11.99-1 18-1l-1-80-7 11c-23.518 33.095-56.911 54.906-97 62-17.953 2.915-38.331 2.362-56-2l-2.1-.504c-38.563-9.542-69.006-34.279-89.9-67.496l-2-4-1 81h16c5.787 3.472 5.787 3.472 7 7v3h4v9h-4v4h4v9h-4v127h4v9h-4v4h4v10h-5l-.875 1.875C148 510 148 510 146 512c-2.188.267-2.188.267-4.937.29l-3.115.04-3.378.006-3.46.02c-2.42.01-4.839.015-7.258.015-3.705.004-7.409.04-11.114.078-2.347.006-4.695.01-7.043.012l-3.365.043-3.134-.018-2.754.008c-3.206-.649-4.427-1.975-6.442-4.494v-2c-1.207.03-1.207.03-2.438.063C85 506 85 506 84 505c-.141-2.67-.042-5.324 0-8l5-1v-4h-5v-8l5-1V356h-5v-8l5-1v-4l-5-1v-8h5l.313-2.813c.702-3.255 1.065-4.27 3.687-6.187 3.763-1.254 7.272-1.107 11.188-1.063l2.271.014c1.847.012 3.694.03 5.541.049l-.008-3.01c-.067-24.241-.116-48.482-.147-72.723a21692.34 21692.34 0 0 0-.071-35.169c-.03-10.225-.05-20.45-.056-30.674-.004-5.408-.013-10.815-.035-16.222-.02-5.104-.027-10.208-.022-15.311-.001-1.86-.007-3.72-.019-5.58C111.406 105.466 126.23 69.563 154 41l1.643-1.703C188.744 5.481 244.225-9.337 290 3ZM175 75l-2.563 2.14c-23.794 20.672-39.346 48.773-43.757 80.137-1.262 21.91 12.537 49.388 26.336 65.504L157 225l2.11 2.469c22.86 26.265 54.242 41.929 89.011 44.37C281.24 273.683 313.917 262.8 339 241l2.668-2.23C362.765 220.53 376.8 194.262 382 167l.598-3.063c3.07-21.94-10.464-47.911-22.91-65.062C338.223 71.246 308.97 52.276 274 47l-2.227-.336C237.298 42.398 201.64 52.642 175 75Z"/>
  <path fill="#282731" d="M112 174c2.3 3.449 2.777 6.507 3.438 10.5 4.043 22.67 13.054 44.464 27.562 62.5l1.242 1.561C167.865 278.088 200.89 295.421 238 301l2.062.313c34.808 4.832 72.333-6.265 100.438-26.875 5.396-4.235 10.513-8.732 15.5-13.438l2.234-2.04c9.658-9.143 17.133-20.259 23.524-31.862L383 225h1c1.071 12.422-.142 19.816-8 30a883.275 883.275 0 0 0-2.371 3.27c-24.021 32.747-58.338 52.838-98.262 59.32-17.041 1.962-35.692 1.527-52.367-2.59l-2.1-.504c-38.563-9.542-69.006-34.279-89.9-67.496l-2-4-1 81h16c5.787 3.472 5.787 3.472 7 7v3h4v9h-4v4h4v9h-4v127h4v9h-4v4h4v10h-5l-.875 1.875C148 510 148 510 146 512c-2.188.267-2.188.267-4.937.29l-3.115.04-3.378.006-3.46.02c-2.42.01-4.839.015-7.258.015-3.705.004-7.409.04-11.114.078-2.347.006-4.695.01-7.043.012l-3.365.043-3.134-.018-2.754.008c-3.206-.649-4.427-1.975-6.442-4.494v-2c-1.207.03-1.207.03-2.438.063C85 506 85 506 84 505c-.141-2.67-.042-5.324 0-8l5-1v-4h-5v-8l5-1V356h-5v-8l5-1v-4l-5-1v-8h5l.313-2.813c.702-3.255 1.065-4.27 3.687-6.187 6.017-2.006 12.658-1 19-1V174Z"/>
  <path fill="#292831" d="m372.554 323.839 2.863-.03 3.103-.012 3.184-.017c2.226-.01 4.453-.016 6.68-.02 3.404-.01 6.808-.04 10.212-.073l6.486-.015 3.084-.038c8.882.028 8.882.028 12.834 3.366 1.735 2.644 2 3.785 2 7h5v8l-5 1v4l5 1v8h-5v127l5 1v8h-5v4l5 1c.098 6.152.098 6.152 0 8-1 1-1 1-3.563 1.062L422 506l-.875 1.875C420 510 420 510 418 512c-2.188.267-2.188.267-4.937.29l-3.115.04-3.378.006-3.46.02c-2.42.01-4.839.015-7.258.015-3.705.004-7.409.04-11.114.078-2.347.006-4.695.01-7.043.012l-3.365.043-3.134-.018-2.754.008c-3.206-.649-4.427-1.975-6.442-4.494v-2h-5v-10h4v-4h-4v-9h4V356h-4v-9h4v-4h-4v-9h4l.25-2.25c.9-3.297 2.174-4.564 4.75-6.75 2.388-1.194 3.888-1.14 6.554-1.161Z"/>
  <path fill="#6D6869" d="M250.383 14.844c34.91-.847 67.852 11.095 93.356 34.988C361.49 66.873 375.244 87.812 381 112l.898 3.625c2.964 13.302 2.394 26.825 2.102 40.375l-2-1a132.643 132.643 0 0 1-1.688-7.375c-7.313-33.146-26.736-62.338-55.5-80.75C309.017 57.555 292.226 50.75 274 48l-2.227-.336c-32.237-3.99-65.132 4.747-91.336 23.898A257.935 257.935 0 0 0 175 76l-2.598 2.176C147.427 99.908 135.172 127.966 129 160h-1c-2.936-14.467-1.243-29.748 2-44l.773-3.684C138.175 80.775 158.84 52.77 186 35.422c19.65-12.141 41.278-19.511 64.383-20.578Z"/>
  <path fill="#6C6768" d="M112 174c2.3 3.449 2.777 6.507 3.438 10.5 4.043 22.67 13.054 44.464 27.562 62.5l1.242 1.561C167.865 278.088 200.89 295.421 238 301l2.062.313c34.808 4.832 72.333-6.265 100.438-26.875 5.396-4.235 10.513-8.732 15.5-13.438l2.234-2.04c9.658-9.143 17.133-20.259 23.524-31.862L383 225h1c1.071 12.422-.142 19.816-8 30a883.275 883.275 0 0 0-2.371 3.27c-24.021 32.747-58.338 52.838-98.262 59.32-17.041 1.962-35.692 1.527-52.367-2.59l-2.1-.504c-38.563-9.542-69.006-34.279-89.9-67.496l-2-4-1 81h16c5.787 3.472 5.787 3.472 7 7v3H89c1.153-6.92 1.153-6.92 4-9 6.017-2.006 12.658-1 19-1V174Z"/>
  <path fill="#898586" d="M112 155h1l.445 3.672c3.9 30.014 15.084 56.08 34.555 79.328l1.777 2.152C167.842 261.494 195.104 276.268 222 283l3.45.902c9.871 2.166 19.671 2.39 29.738 2.41l2.05.011c38.19.11 73.256-15.305 100.325-41.89C368.079 233.946 376.246 222.217 383 209h1c1.385 13.016-1.297 20.573-9 31l-1.264 1.772C349.82 275.13 315.154 295.178 275 302c-35.648 5.145-74.09-4.457-103-26a204.973 204.973 0 0 1-10-8l-2.867-2.422C138.772 247.917 123.7 223.087 117 197l-.828-3.074A311.217 311.217 0 0 1 114 185l-.629-2.527c-1.995-9.054-1.543-18.257-1.371-27.473Z"/>
  <path fill="#8A8687" d="M250.383 14.844c34.91-.847 67.852 11.095 93.356 34.988 22.73 21.82 39.626 51.633 40.445 83.809.03 3.79-.046 7.571-.184 11.359h-1l-.594-3.855c-5.802-35.083-23.5-65.626-52.428-86.765-21.837-15.234-46.881-22.8-73.416-22.63l-3.658-.023C219.58 31.797 189.892 45.123 166 68l-2.297 2.105c-19.73 18.676-31.407 45.956-34.39 72.582l-.393 3.319c-.314 2.664-.62 5.328-.92 7.994h-1c-.345-13.069.096-25.24 3-38l.773-3.684C138.175 80.775 158.84 52.77 186 35.422c19.65-12.141 41.278-19.511 64.383-20.578Z"/>
  <path fill="#1F1E25" d="M392 356h31v127h-31V356ZM120 356h31v127h-31V356Z"/>
  <path fill="#545253" d="M112 174c2.3 3.449 2.777 6.507 3.438 10.5 2.159 12.107 4.979 25.587 11.61 36.173 1.438 3.516 1.437 7.091 1.585 10.84l.115 2.544c.375 9.249.28 18.484.13 27.736l-.07 5.434c-.063 4.697-.132 9.393-.203 14.09-.071 4.82-.136 9.641-.2 14.462-.129 9.407-.264 18.814-.405 28.221l3.324-.105c1.455-.029 2.91-.056 4.363-.082l2.186-.077c4.597-.063 7.481.412 11.127 3.264 1.735 2.644 2 3.785 2 7H89c1.153-6.92 1.153-6.92 4-9 6.017-2.006 12.658-1 19-1V174Z"/>
  <path fill="#B7B4B5" d="M284 3c7.102.43 13.407 1.748 20.125 4.063l2.754.937c25.218 8.852 45.51 24.244 62.121 45l1.77 2.094c1.48 2.294 1.709 4.234 2.23 6.906a165.361 165.361 0 0 0 3.25 6.313C380.216 75.94 382.727 83.728 385 92l.902 3.164c4.34 16.709 4.396 34.333 4.325 51.488v5.89c.002 5.257-.01 10.514-.024 15.771-.013 5.521-.014 11.043-.016 16.564-.006 10.422-.023 20.844-.043 31.267-.022 11.879-.033 23.758-.043 35.638-.021 24.406-.056 48.812-.101 73.218h-6l.003-1.652c.167-81.403.167-81.403-.212-162.804-.029-3.536-.05-7.072-.062-10.609-.167-43.743-9.364-80.406-40.354-112.935C326.545 20.661 306.126 11.041 284 4V3Z"/>
  <path fill="#A91B27" d="m372.554 323.839 2.863-.03 3.103-.012 3.184-.017c2.226-.01 4.453-.016 6.68-.02 3.404-.01 6.808-.04 10.212-.073l6.486-.015 3.084-.038c8.882.028 8.882.028 12.834 3.366 1.735 2.644 2 3.785 2 7h5v8l-5 1v4l5 1v8h-71v-9h4v-4h-4v-9h4l.25-2.25c.9-3.297 2.174-4.564 4.75-6.75 2.388-1.194 3.888-1.14 6.554-1.161Z"/>
  <path fill="#B21A26" d="M357 483c9.11-.023 18.22-.04 27.329-.052 4.23-.005 8.459-.012 12.688-.023 4.079-.011 8.157-.017 12.235-.02 1.56-.002 3.12-.005 4.679-.01 2.176-.008 4.353-.009 6.53-.009l3.761-.006C427 483 427 483 428 484c.141 2.67.042 5.324 0 8h-5v4l5 1c.098 6.152.098 6.152 0 8-1 1-1 1-3.563 1.063L422 506l-.875 1.875C420 510 420 510 418 512c-2.188.267-2.188.267-4.937.29l-3.115.04-3.378.006-3.46.02c-2.42.01-4.839.015-7.258.015-3.705.004-7.409.04-11.114.078-2.347.006-4.695.01-7.043.012l-3.365.043-3.134-.018-2.754.008c-3.206-.649-4.427-1.975-6.442-4.494v-2h-5v-10h4v-4h-4v-9Z"/>
  <path fill="#CD1E2C" d="m87.778 482.88 3.761.006h2.07c2.267 0 4.534.009 6.801.016l4.704.005c4.135.003 8.27.013 12.404.024 4.216.01 8.432.015 12.648.02 8.278.01 16.556.028 24.834.049v9h-4v4h4v10h-5l-.875 1.875C148 510 148 510 146 512c-2.188.267-2.188.267-4.937.29l-3.115.04-3.378.006-3.46.02c-2.42.01-4.839.015-7.258.015-3.705.004-7.409.04-11.114.078-2.347.006-4.695.01-7.043.012l-3.365.043-3.134-.018-2.754.008c-3.206-.649-4.427-1.975-6.442-4.494v-2l-2.438.063C85 506 85 506 84 505c-.141-2.67-.042-5.324 0-8l5-1v-4h-5c-.098-6.152-.098-6.152 0-8 1-1 1-1 3.778-1.12Z"/>
  <path fill="#AB1B27" d="M84 334h71v9h-4v4h4v9H84v-8l5-1v-4l-5-1v-8Z"/>
  <path fill="#797778" d="M112 183h1l.535 3.073c.655 3.764 1.314 7.526 1.974 11.289.285 1.628.569 3.257.852 4.885.408 2.341.818 4.682 1.229 7.023l.382 2.206c.517 2.934 1.084 5.693 2.028 8.524.089 1.447.122 2.897.12 4.347l.004 2.69-.01 2.942v3.105c0 3.393-.009 6.785-.016 10.178l-.005 7.05c-.003 6.189-.013 12.378-.024 18.568-.01 6.314-.015 12.628-.02 18.942-.01 12.393-.028 24.785-.049 37.178h-8V183Z"/>
  <path fill="#AD1B27" d="M357 347c9.11-.023 18.22-.04 27.329-.052 4.23-.005 8.459-.012 12.688-.023 4.079-.011 8.157-.017 12.235-.02 1.56-.002 3.12-.005 4.679-.01 2.176-.008 4.353-.009 6.53-.009l3.761-.006C427 347 427 347 428 348v8h-71v-9Z"/>
  <path fill="#AC1B27" d="M84 334h71v9c-9.11.023-18.22.04-27.329.052-4.23.005-8.459.012-12.688.023-4.079.011-8.157.017-12.235.02-1.56.002-3.12.005-4.679.01-2.176.008-4.353.009-6.53.009l-3.761.006C85 343 85 343 84 342v-8Z"/>
  <path fill="#1F1E25" d="m372.554 323.839 2.863-.03 3.103-.012 3.184-.017c2.226-.01 4.453-.016 6.68-.02 3.404-.01 6.808-.04 10.212-.073l6.486-.015 3.084-.038c8.882.028 8.882.028 12.834 3.366 1.735 2.644 2 3.785 2 7h-62c1.007-5.036 1.34-5.895 5-9 2.388-1.194 3.888-1.14 6.554-1.161Z"/>
  <path fill="#282730" d="m100.667 323.839 2.863-.03 3.087-.012 3.18-.017c2.22-.01 4.442-.016 6.662-.02 3.396-.01 6.79-.041 10.186-.073 2.157-.006 4.315-.011 6.472-.015l3.075-.038c8.852.028 8.852.028 12.808 3.366 1.735 2.644 2 3.785 2 7H89c1.153-6.92 1.153-6.92 4-9 2.863-.954 4.694-1.137 7.667-1.161Z"/>
  <path fill="#35262F" d="M362 505h60c-1.25 5-1.25 5-4 7-2.308.388-2.308.388-5.05.404l-3.116.038-3.361-.008-3.456.015c-2.414.007-4.827.006-7.24-.003-3.697-.008-7.391.02-11.088.052-2.343.002-4.686.001-7.029-.002l-3.356.034-3.124-.028h-2.745c-3.22-.664-4.44-1.936-6.435-4.502v-3ZM90 505h60c-1.25 5-1.25 5-4 7-2.308.388-2.308.388-5.05.404l-3.116.038-3.361-.008-3.456.015c-2.414.007-4.827.006-7.24-.003-3.697-.008-7.391.02-11.088.052-2.343.002-4.686.001-7.029-.002l-3.356.034-3.124-.028h-2.745c-3.22-.664-4.44-1.936-6.435-4.502v-3Z"/>
  <path fill="#E72232" d="M357 483h35v9h-35v-9Z"/>
  <path fill="#231D25" d="M361 492h62v5h-62v-5ZM89 492h62v5H89v-5Z"/>
  <path fill="#F12132" d="M88.326 346.978c1.476.043 2.952.09 4.428.143l2.35.072c2.486.076 4.972.16 7.458.245l5.045.158c4.131.13 8.262.265 12.393.404v8H84c0-8.993 0-8.993 4.326-9.022ZM84 334h36v8c-4.966.167-9.932.328-14.899.482-1.69.054-3.381.109-5.072.166-2.425.082-4.85.157-7.275.23l-2.304.083c-1.816.052-3.633.05-5.45.039l-1-1v-8Z"/>
  <path fill="#B71A26" d="M155 496v10l-35-1v-8a34503.698 34503.698 0 0 1 17.454-.573 13554.881 13554.881 0 0 1 10.246-.335c2.433-.068 4.867-.092 7.3-.092Z"/>
  <path fill="#F22233" d="m357 496 35 1v8l-35 1v-10ZM357 347l35 1v8h-35v-9Z"/>
  <path fill="#F22232" d="M357 334h35v8l-35 1v-9Z"/>
  <path fill="#292831" d="m375.625 323.875 2.188.006c4.803.039 9.441.328 14.187 1.119v9h-31c1.007-5.036 1.34-5.895 5-9 3.065-1.532 6.266-1.146 9.625-1.125Z"/>
  <path fill="#1F1E25" d="m136.188 323.75 2.087-.064c4.442-.03 7.192.598 10.725 3.314 1.735 2.644 2 3.785 2 7h-31v-9c5.385-.898 10.733-1.166 16.188-1.25Z"/>
  <path fill="#F12132" d="M88.326 482.978c1.476.043 2.952.09 4.428.143l2.35.072c2.486.076 4.972.16 7.458.245l5.045.158c4.131.13 8.262.265 12.393.404v7l-36 1c0-8.993 0-8.993 4.326-9.022Z"/>
  <path fill="#1F1E25" d="M361 343h62v4h-62v-4ZM89 343h62v4H89v-4ZM392 506h30c-2 4-2 4-4 6-2.614.227-2.614.227-5.883.195l-3.535-.02-3.707-.05-3.73-.027c-3.049-.024-6.097-.057-9.145-.098v-6Z"/>
  <path fill="#1E1D25" d="M120 506h30c-2 4-2 4-4 6-2.614.227-2.614.227-5.883.195l-3.535-.02-3.707-.05-3.73-.027c-3.049-.024-6.097-.057-9.145-.098v-6Z"/>
  <path fill="#312731" d="M361 492h31v5h-31v-5ZM89 492h31v5H89v-5Z"/>
  <path fill="#292831" d="M361 343h31v4h-31v-4Z"/>
  <path fill="#282731" d="M89 343h31v4H89v-4Z"/>
  <path fill="#EC2131" d="m423 496 5 1v8l-4 1 2-3c-.324-3.322-.608-4.608-3-7Z"/>
  <path fill="#EE2031" d="M424 334h4v8l-5 1 1.5-1.25c1.934-1.872 1.934-1.872 1.5-5.75l-2-2Z"/>
</svg>
